<svg width="90" height="46" viewBox="0 0 90 46" fill="none" xmlns="http://www.w3.org/2000/svg">
<path d="M80.4255 0H9.57447C4.28664 0 0 4.28664 0 9.57447V36.383C0 41.6708 4.28664 45.9574 9.57447 45.9574H80.4255C85.7134 45.9574 90 41.6708 90 36.383V9.57447C90 4.28664 85.7134 0 80.4255 0Z" fill="white"/>
<g clip-path="url(#clip0_406_120)">
<path d="M27.8016 14.8464C27.1733 15.5921 26.1679 16.1802 25.1626 16.0962C25.037 15.0879 25.5291 14.0166 26.1051 13.3549C26.7334 12.5882 27.833 12.042 28.7231 12C28.8278 13.0503 28.4194 14.0796 27.8016 14.8464ZM28.7126 16.2958C27.257 16.2118 26.0109 17.1255 25.3197 17.1255C24.6181 17.1255 23.5604 16.3378 22.4085 16.3588C20.911 16.3798 19.5182 17.2306 18.7537 18.5855C17.1829 21.2953 18.3453 25.3075 19.8637 27.5131C20.6073 28.6055 21.4974 29.8028 22.6703 29.7608C23.7803 29.7188 24.2201 29.0361 25.5606 29.0361C26.9115 29.0361 27.2989 29.7608 28.4718 29.7398C29.6866 29.7188 30.451 28.6475 31.1945 27.5551C32.0428 26.3158 32.3883 25.1079 32.4093 25.0449C32.3883 25.0239 30.0635 24.1311 30.0426 21.4423C30.0217 19.1947 31.8752 18.1233 31.959 18.0603C30.9118 16.5058 29.2781 16.3378 28.7126 16.2958ZM37.1217 13.2499V29.6243H39.656V24.0261H43.1641C46.3686 24.0261 48.6201 21.8204 48.6201 18.6275C48.6201 15.4345 46.4105 13.2499 43.2479 13.2499H37.1217V13.2499ZM39.656 15.3925H42.5777C44.7768 15.3925 46.0335 16.5689 46.0335 18.638C46.0335 20.7071 44.7768 21.894 42.5672 21.894H39.656V15.3925V15.3925ZM53.2487 29.7503C54.8405 29.7503 56.317 28.9416 56.9872 27.6602H57.0396V29.6243H59.3854V21.4738C59.3854 19.1106 57.5004 17.5877 54.5996 17.5877C51.9083 17.5877 49.9186 19.1316 49.8453 21.2533H52.1282C52.3167 20.245 53.2487 19.5833 54.5263 19.5833C56.0762 19.5833 56.9454 20.308 56.9454 21.6419V22.5452L53.7828 22.7342C50.8401 22.9128 49.2484 24.1206 49.2484 26.2212C49.2484 28.3429 50.8925 29.7503 53.2487 29.7503ZM53.9294 27.8072C52.5785 27.8072 51.7198 27.156 51.7198 26.1582C51.7198 25.1289 52.5471 24.5302 54.1284 24.4357L56.9454 24.2572V25.1814C56.9454 26.7149 55.6468 27.8072 53.9294 27.8072ZM62.5165 34.0776C64.9879 34.0776 66.1503 33.1323 67.1661 30.265L71.6167 17.7452H69.0406L66.0561 27.4186H66.0037L63.0192 17.7452H60.3697L64.6633 29.6663L64.4329 30.391C64.0454 31.6199 63.4171 32.0925 62.2966 32.0925C62.0976 32.0925 61.7102 32.0715 61.5531 32.0505V34.0146C61.6997 34.0566 62.328 34.0776 62.5165 34.0776Z" fill="black"/>
</g>
<defs>
<clipPath id="clip0_406_120">
<rect width="53.617" height="22.0776" fill="white" transform="translate(18 12)"/>
</clipPath>
</defs>
</svg>
