<svg width="47" height="24" viewBox="0 0 47 24" fill="none" xmlns="http://www.w3.org/2000/svg">
<path d="M42 0H5C2.23858 0 0 2.23858 0 5V19C0 21.7614 2.23858 24 5 24H42C44.7614 24 47 21.7614 47 19V5C47 2.23858 44.7614 0 42 0Z" fill="white"/>
<g clip-path="url(#clip0_406_120)">
<path d="M15.1194 7.48643C14.7913 7.87586 14.2663 8.18302 13.7413 8.13914C13.6757 7.61258 13.9327 7.05311 14.2335 6.70756C14.5616 6.30716 15.1359 6.02194 15.6007 6C15.6554 6.5485 15.4421 7.08602 15.1194 7.48643ZM15.5952 8.24335C14.8351 8.19947 14.1843 8.67667 13.8234 8.67667C13.4569 8.67667 12.9046 8.26529 12.303 8.27626C11.521 8.28723 10.7937 8.73152 10.3944 9.43908C9.57414 10.8542 10.1812 12.9495 10.9741 14.1013C11.3624 14.6717 11.8273 15.297 12.4398 15.2751C13.0194 15.2531 13.2491 14.8966 13.9491 14.8966C14.6546 14.8966 14.8569 15.2751 15.4694 15.2641C16.1038 15.2531 16.503 14.6937 16.8913 14.1232C17.3343 13.476 17.5148 12.8452 17.5257 12.8123C17.5148 12.8014 16.3007 12.3351 16.2898 10.931C16.2788 9.75721 17.2468 9.19774 17.2905 9.16483C16.7437 8.35305 15.8905 8.26529 15.5952 8.24335ZM19.9866 6.65271V15.2038H21.3101V12.2803H23.1421C24.8155 12.2803 25.9913 11.1284 25.9913 9.46102C25.9913 7.79359 24.8374 6.65271 23.1859 6.65271H19.9866V6.65271ZM21.3101 7.77165H22.8359C23.9843 7.77165 24.6405 8.38596 24.6405 9.4665C24.6405 10.547 23.9843 11.1668 22.8304 11.1668H21.3101V7.77165V7.77165ZM28.4085 15.2696C29.2398 15.2696 30.0109 14.8473 30.3609 14.1781H30.3882V15.2038H31.6132V10.9474C31.6132 9.71333 30.6288 8.91801 29.114 8.91801C27.7085 8.91801 26.6694 9.7243 26.6312 10.8323H27.8234C27.9218 10.3057 28.4085 9.96015 29.0757 9.96015C29.8851 9.96015 30.339 10.3386 30.339 11.0352V11.5069L28.6874 11.6056C27.1507 11.6989 26.3194 12.3297 26.3194 13.4267C26.3194 14.5346 27.178 15.2696 28.4085 15.2696ZM28.764 14.2549C28.0585 14.2549 27.6101 13.9148 27.6101 13.3937C27.6101 12.8562 28.0421 12.5436 28.8679 12.4942L30.339 12.401V12.8836C30.339 13.6844 29.6609 14.2549 28.764 14.2549ZM33.2484 17.5294C34.539 17.5294 35.146 17.0358 35.6765 15.5384L38.0007 9.00028H36.6554L35.0968 14.0519H35.0694L33.5109 9.00028H32.1273L34.3694 15.2257L34.2491 15.6042C34.0468 16.2459 33.7187 16.4928 33.1335 16.4928C33.0296 16.4928 32.8273 16.4818 32.7452 16.4708V17.4965C32.8218 17.5184 33.1499 17.5294 33.2484 17.5294Z" fill="black"/>
</g>
<defs>
<clipPath id="clip0_406_120">
<rect width="28" height="11.5294" fill="white" transform="translate(10 6)"/>
</clipPath>
</defs>
</svg>
