<svg width="70" height="70" viewBox="0 0 70 70" fill="none" xmlns="http://www.w3.org/2000/svg">
<circle cx="35" cy="35" r="35" fill="#FF0000"/>
<path d="M18.6747 22.0814C17.899 22.2624 17.2078 22.8064 16.8456 23.515C16.6516 23.902 16.6349 24.0177 16.6098 25.591L16.5843 27.2633H15.1934C14.1652 27.2633 13.7265 27.2964 13.5074 27.3867C12.9257 27.6258 12.8416 28.4247 13.3639 28.8285C13.5747 28.9932 13.6926 28.9932 20.1078 28.9932C27.2644 28.9932 26.9863 28.9769 27.256 29.4877C27.4162 29.7926 27.4162 30.0067 27.256 30.3116C26.9863 30.8142 27.121 30.8061 21.6082 30.8061H16.5926V31.6704V32.5355H15.2018C14.1652 32.5355 13.7265 32.5686 13.5074 32.6589C12.9257 32.898 12.8412 33.697 13.3639 34.1007C13.5747 34.2654 13.6926 34.2654 18.3799 34.2654H23.1847L23.4712 34.5454C23.8588 34.9242 23.876 35.3774 23.5134 35.7648L23.2688 36.0366L19.9305 36.0611L16.5922 36.0856V36.9426V37.8078H15.2018C13.558 37.8078 13.2882 37.8817 13.0858 38.3513C12.9257 38.7219 12.9846 38.9937 13.305 39.2986L13.5408 39.5377H16.5082C19.7875 39.5377 19.8293 39.5458 20.0823 40.0648C20.2508 40.411 20.2508 40.4768 20.0823 40.8229C19.8464 41.3007 19.644 41.3501 18.0169 41.3501H16.5759L16.6098 42.1164C16.652 43.0305 16.8962 43.6239 17.4528 44.1098C17.9923 44.5876 18.456 44.7523 19.3748 44.7935L20.1756 44.8267V43.8957C20.1839 42.7919 20.3274 42.1822 20.8162 41.2181C21.87 39.1257 24.0449 37.8078 26.4557 37.8078C27.4672 37.8078 28.268 37.9888 29.1951 38.4257C30.527 39.0599 31.5218 40.024 32.1453 41.3088C32.5836 42.2067 32.727 42.8327 32.7354 43.8794V44.8103H36.3601H39.9848L39.9597 44.0522C39.9258 43.1544 40.0354 42.5201 40.3729 41.6963C41.1398 39.8017 42.8092 38.4012 44.849 37.9316C45.6247 37.7587 46.9394 37.7751 47.7486 37.9729C48.912 38.2614 49.7378 38.7224 50.657 39.6206C51.3566 40.2962 51.5251 40.5103 51.8542 41.1858C52.3431 42.1744 52.5288 42.8994 52.5288 43.9292C52.5371 44.8357 52.4531 44.7776 53.3296 44.4646C54.3072 44.1103 55.4116 43.0228 55.7826 42.0592C56.0945 41.2521 56.1451 40.5929 56.1112 37.7506C56.0857 34.686 56.0774 34.6529 55.361 33.8952C54.9307 33.4334 54.8044 33.3676 53.5988 32.9556C53.0845 32.7742 52.3765 32.4697 52.0223 32.2719C51.3399 31.9013 51.1964 31.7611 44.4948 25.459C41.2577 22.4194 41.0219 22.2379 39.9848 22.0732C39.3446 21.9743 19.1213 21.9743 18.6747 22.0814ZM39.5721 23.902C39.9769 24.2069 47.4622 30.7149 47.7658 31.0198C48.0694 31.3328 48.12 31.7198 47.9092 32.1154C47.6901 32.5355 47.6228 32.5437 43.3068 32.5192L39.3028 32.4947L38.9486 32.2724C38.7634 32.149 38.4932 31.8686 38.3669 31.6545L38.1311 31.2589L38.106 27.9062C38.0805 24.8992 38.0976 24.5203 38.2239 24.2567C38.476 23.7291 39.125 23.564 39.5721 23.902ZM41.2832 34.3888C41.7382 34.6111 41.9072 35.2953 41.6036 35.6659C41.3171 36.0284 41.1231 36.0779 39.9597 36.0779C38.6701 36.0779 38.4422 36.0035 38.2147 35.5339C38.0884 35.2785 38.0884 35.1796 38.1641 34.9078C38.3326 34.3643 38.6023 34.2654 39.9258 34.2654C40.7438 34.2654 41.1147 34.2985 41.2832 34.3888Z" fill="white"/>
<path d="M25.1067 39.8098C23.2099 40.444 21.9876 42.0755 21.9876 43.97C21.9959 45.4118 22.7967 46.8369 24.0529 47.6276C25.4777 48.5336 27.4335 48.5336 28.8577 47.6276C31.6566 45.8565 31.5637 41.8278 28.6892 40.1886C27.6526 39.5957 26.2028 39.4391 25.1067 39.8098ZM27.096 43.3603C27.4247 43.6815 27.4753 44.0608 27.2394 44.3983C26.9191 44.8515 26.5315 44.975 26.0761 44.7608C25.4693 44.4809 25.3509 43.8135 25.8147 43.3603C26.0505 43.1298 26.1689 43.0804 26.4553 43.0804C26.7418 43.0804 26.8601 43.1298 27.096 43.3603Z" fill="white"/>
<path d="M44.8407 39.8343C42.9861 40.4522 41.7977 42.0505 41.7977 43.9206C41.8061 45.1727 42.1603 46.0461 43.0284 46.9439C44.4025 48.3689 46.375 48.7151 48.1874 47.8499C50.1599 46.9108 51.1464 44.7277 50.5057 42.7093C50.0508 41.2675 48.7273 40.0321 47.277 39.7104C46.5686 39.5544 45.5236 39.6038 44.8407 39.8343ZM46.7961 43.245C46.914 43.3358 47.0575 43.5417 47.1081 43.6983C47.2427 44.0939 47.0152 44.5467 46.5853 44.7526C46.3156 44.8842 46.2228 44.8928 45.9698 44.8102C45.4136 44.6292 45.169 44.0113 45.4554 43.5005C45.7005 43.0804 46.4001 42.9402 46.7961 43.245Z" fill="white"/>
</svg>
