<svg width="20" height="20" viewBox="0 0 20 20" fill="none" xmlns="http://www.w3.org/2000/svg">
<path d="M0 6.72412L10 18.4483L5.55556 6.72412H0Z" fill="#82C8DC"/>
<path d="M14.4444 6.72412L10 18.4483L20 6.72412H14.4444Z" fill="#B4E6F0"/>
<path d="M9.99998 6.72417H14.4444L9.99998 1.55176L5.55554 6.72417H9.99998Z" fill="#D9FFFF"/>
<path d="M9.99998 6.72412H5.55554L9.99998 18.4483L14.4444 6.72412H9.99998Z" fill="#A0DCE6"/>
<path d="M4.48276 1.55176L0 6.72417H5.55556L4.48276 1.55176Z" fill="#A0DCE6"/>
<path d="M20 6.72417L15.5173 1.55176L14.4445 6.72417H20Z" fill="#EBFFFF"/>
<path d="M15.5172 1.55176H10L14.4444 6.72417L15.5172 1.55176Z" fill="#B4E6F0"/>
<path d="M10 1.55176H4.48279L5.55559 6.72417L10 1.55176Z" fill="#B4E6F0"/>
</svg>
