<svg width="23" height="23" viewBox="0 0 23 23" fill="none" xmlns="http://www.w3.org/2000/svg">
<g clip-path="url(#clip0_103_2)">
<path d="M17.406 2H14.812C14.1614 1.96275 13.5103 2.06553 12.9028 2.30142C12.2953 2.5373 11.7455 2.90079 11.2905 3.36735C10.8356 3.83391 10.486 4.39266 10.2654 5.00589C10.0448 5.61911 9.95843 6.27253 10.012 6.922V9.191H7.408C7.35442 9.191 7.30137 9.20156 7.25187 9.22206C7.20236 9.24257 7.15739 9.27262 7.1195 9.3105C7.08161 9.34839 7.05156 9.39337 7.03106 9.44287C7.01055 9.49237 7 9.54542 7 9.599V12.887C7 12.9952 7.04299 13.099 7.1195 13.1755C7.19602 13.252 7.29979 13.295 7.408 13.295H10.016V21.595C10.0168 21.7025 10.06 21.8054 10.1362 21.8812C10.2124 21.9571 10.3155 21.9997 10.423 22H13.823C13.9312 22 14.035 21.957 14.1115 21.8805C14.188 21.804 14.231 21.7002 14.231 21.592V13.3H17.28C17.3882 13.3 17.492 13.257 17.5685 13.1805C17.645 13.104 17.688 13.0002 17.688 12.892V9.6C17.688 9.54642 17.6774 9.49337 17.6569 9.44387C17.6364 9.39437 17.6064 9.34939 17.5685 9.3115C17.5306 9.27362 17.4856 9.24357 17.4361 9.22306C17.3866 9.20256 17.3336 9.192 17.28 9.192H14.233V7.268C14.233 6.343 14.453 5.874 15.658 5.874H17.405C17.5132 5.874 17.617 5.83102 17.6935 5.7545C17.77 5.67799 17.813 5.57421 17.813 5.466V2.412C17.8135 2.35817 17.8034 2.30477 17.7832 2.25487C17.763 2.20497 17.7331 2.15957 17.6953 2.12127C17.6574 2.08297 17.6124 2.05254 17.5628 2.03173C17.5131 2.01092 17.4598 2.00013 17.406 2V2Z" fill="white"/>
</g>
<defs>
<clipPath id="clip0_103_2">
<rect width="10.813" height="20" fill="white" transform="translate(7 2)"/>
</clipPath>
</defs>
</svg>
