<svg width="70" height="70" viewBox="0 0 70 70" fill="none" xmlns="http://www.w3.org/2000/svg">
<circle cx="35" cy="35" r="35" fill="#FF0000"/>
<path d="M53.6712 22.7944H15.8532C14.3924 22.7944 13.2 23.9824 13.2 25.4432V31.4536C13.2 32.9144 14.388 34.1024 15.8532 34.1024H16.3548V54.1444C16.3548 55.6052 17.5428 56.7976 19.0036 56.7976H50.5208C51.9816 56.7976 53.1696 55.6096 53.1696 54.1444V34.1024H53.6712C55.132 34.1024 56.32 32.9144 56.32 31.4536V25.4476C56.32 23.9824 55.132 22.7944 53.6712 22.7944ZM15.3208 31.4536V25.4476C15.3208 25.1572 15.5584 24.9152 15.8532 24.9152H30.932V31.986H17.4108H15.8532C15.5584 31.986 15.3208 31.744 15.3208 31.4536ZM18.4712 54.1488V34.1024H30.932V54.6768H19.0036C18.7088 54.6768 18.4712 54.4392 18.4712 54.1488ZM51.0488 54.1488C51.0488 54.4436 50.8112 54.6812 50.5208 54.6812H38.588V34.1068H51.0488V54.1488ZM54.1992 31.4536C54.1992 31.744 53.9616 31.986 53.6712 31.986H52.1092H38.588V24.9152H53.6668C53.9572 24.9152 54.1948 25.1528 54.1948 25.4476V31.4536H54.1992Z" fill="white"/>
<path d="M33.8534 21.7428C34.377 21.7428 34.685 21.734 34.685 21.734C34.6982 21.734 34.707 21.7296 34.7158 21.7296C34.729 21.7296 34.7378 21.734 34.751 21.734C34.751 21.734 35.0634 21.7428 35.5958 21.7428C37.2326 21.7428 40.4006 21.668 43.2562 21.1532C47.335 20.4184 49.403 18.9796 49.403 16.8808C49.403 14.6456 47.687 13.2024 45.0294 13.2024C42.3894 13.2024 38.227 14.7512 34.7246 19.0148C31.2838 14.7512 27.1874 13.2024 24.5914 13.2024C21.969 13.2024 20.2794 14.6456 20.2794 16.8808C20.2794 19.0984 22.6334 21.7428 33.8534 21.7428ZM45.0294 15.3232C45.8698 15.3232 47.2822 15.5256 47.2822 16.8808C47.2822 17.752 45.6366 18.5704 42.8778 19.0676C40.8494 19.4284 38.5878 19.556 37.0214 19.6C39.745 16.6608 42.8778 15.3232 45.0294 15.3232ZM24.5914 15.3232C26.699 15.3232 29.7702 16.6608 32.441 19.6044C26.545 19.4548 22.4002 18.3548 22.4002 16.8808C22.4002 15.5256 23.773 15.3232 24.5914 15.3232Z" fill="white"/>
</svg>
