<svg data-name="search (4)" xmlns="http://www.w3.org/2000/svg" width="23" height="23"><path data-name="Контур 132" d="M5.1 13.899l-.8 2.989-2.926.062a11.52 11.52 0 01-.085-10.739l2.605.478 1.141 2.589a6.863 6.863 0 00.065 4.621z" fill="#fbbb00"/><path data-name="Контур 133" d="M22.799 9.352a11.5 11.5 0 01-4.1 11.116l-3.281-.167-.464-2.9a6.854 6.854 0 002.949-3.5h-6.149V9.352H22.8z" fill="#518ef8"/><path data-name="Контур 134" d="M18.699 20.467A11.5 11.5 0 011.37 16.949l3.727-3.051a6.84 6.84 0 009.856 3.5z" fill="#28b446"/><path data-name="Контур 135" d="M18.841 2.648L15.115 5.7A6.839 6.839 0 005.033 9.278L1.287 6.211a11.5 11.5 0 0117.554-3.563z" fill="#f14336"/></svg>