<svg width="20" height="20" viewBox="0 0 20 20" fill="none" xmlns="http://www.w3.org/2000/svg">
<path d="M3.09192 13.5402C3.09192 16.7397 6.33402 19.3334 10.3333 19.3334C14.3326 19.3334 17.5747 16.7397 17.5747 13.5402C17.5747 10.3218 15.5632 7.74709 16.9128 5.49422C16.9128 5.49422 14.7586 5.81607 13.5517 8.39076C13.5517 8.39076 9.52871 5.17237 11.2096 0.666626C11.2096 0.666626 7.11498 1.95397 7.54318 6.13789C7.91038 9.72563 7.11498 10.3218 7.11498 10.3218C7.11498 7.42529 4.2842 6.13789 4.2842 6.13789C5.10342 9.67816 3.09192 10.6437 3.09192 13.5402Z" fill="#F69200"/>
<path d="M15.5604 14.9121C15.5604 17.3218 13.2346 19.3789 10.2231 19.3324C7.38902 19.2887 5.2804 17.5637 5.50576 15.3103C5.60634 14.3045 6.56178 12.6752 8.12069 11.0258L9.15996 11.5287C9.12642 9.49042 10.3333 6.78162 10.3333 6.78162C11.1261 9.63568 15.5604 10.3754 15.5604 14.9121Z" fill="#FED33F"/>
<path d="M8.32186 12.8965C7.91953 14.8275 7.11493 15.5306 7.11493 16.7586C7.11493 18.0459 8.55586 19.3333 10.3333 19.3333C12.1236 19.3333 13.5567 18.1631 13.5517 16.7309C13.5383 12.8842 10.7357 10.9655 10.7357 10.9655C11.138 12.8965 9.93106 13.8621 9.93106 13.8621C9.42833 13.2588 8.32186 12.8965 8.32186 12.8965Z" fill="white"/>
</svg>
