<svg width="70" height="70" viewBox="0 0 70 70" fill="none" xmlns="http://www.w3.org/2000/svg">
<circle cx="35" cy="35" r="35" fill="#FF0000"/>
<path d="M33.6067 13.4933C28.1129 13.9834 23.2984 16.9064 20.7789 21.2742C20.0393 22.5639 19.3859 24.4726 19.2143 25.8485C19.1628 26.2867 19.1457 26.3043 18.8447 26.347C17.7614 26.5102 16.9791 27.0004 16.5835 27.7572L16.3429 28.213V32.5629C16.3429 36.7671 16.3517 36.922 16.5149 37.2744C16.8757 38.014 17.7869 38.6415 18.6555 38.7449L19.0854 38.7964L19.1369 39.4498C19.2403 40.662 19.3604 41.556 19.5236 42.3903C20.7789 48.589 24.6655 52.7848 30.2794 54.0142C30.8211 54.1348 31.4401 54.2549 31.672 54.2892C31.947 54.3235 32.0759 54.3838 32.0759 54.4696C32.0759 54.7618 32.6092 55.622 33.0215 55.9916C33.6406 56.5504 33.8901 56.5847 36.6757 56.5504L38.9971 56.5244L39.4613 56.2666C40.0285 55.9484 40.45 55.4671 40.6392 54.9166C40.8372 54.3235 40.7853 52.3545 40.5618 51.9418C40.3295 51.5036 39.8221 50.9874 39.4354 50.7811C39.1001 50.6007 38.954 50.5919 36.6326 50.5664C35.2827 50.5492 34.0617 50.5576 33.9156 50.5923C33.3053 50.7041 32.5916 51.4604 32.2044 52.4152C31.9981 52.9138 31.9981 52.9138 31.6711 52.8882C31.0864 52.8368 29.7365 52.5186 28.9889 52.252C27.2179 51.6329 25.8077 50.7472 24.5009 49.4404C22.3687 47.2998 21.182 44.6602 20.6232 40.7913C20.5374 40.2066 20.5114 38.3238 20.5114 33.0962C20.5114 26.7509 20.5286 26.1063 20.6663 25.401C21.4574 21.4806 24.1053 18.2048 27.9571 16.3819C34.8867 13.1061 43.622 15.1697 47.5085 21.016C48.3766 22.3316 48.9271 23.6296 49.2967 25.229C49.4599 25.9598 49.4771 26.3294 49.503 32.107C49.5374 37.1626 49.5633 38.2459 49.6579 38.4008C49.9589 38.8566 51.3603 38.8993 52.22 38.4782C52.7876 38.2032 53.441 37.5151 53.5699 37.0685C53.6214 36.8705 53.6557 35.1166 53.6557 32.4859V28.2302L53.4322 27.7832C53.071 27.0523 52.3318 26.5538 51.3603 26.3818L50.8446 26.2872L50.7416 25.5994C49.9936 20.6904 46.0904 16.3053 40.8113 14.4481C38.5765 13.6565 35.8423 13.2957 33.6067 13.4933ZM19.0942 32.5374V37.395H18.8363C18.4751 37.395 18.0281 37.1974 17.856 36.9563C17.7355 36.7759 17.7183 36.2945 17.7183 32.5541C17.7183 29.8542 17.7526 28.2984 17.8041 28.195C17.9247 27.9627 18.208 27.8254 18.6639 27.7563C18.8786 27.7304 19.0594 27.696 19.0766 27.6877C19.0854 27.6881 19.0942 29.8635 19.0942 32.5374ZM51.8685 27.9028C51.9974 27.9715 52.1435 28.1004 52.1954 28.1866C52.2469 28.2984 52.2812 29.8375 52.2812 32.5545C52.2812 36.2945 52.264 36.7759 52.1435 36.9567C51.9714 37.1974 51.5244 37.3954 51.1631 37.3954H50.9057V32.5457V27.6965L51.2753 27.7396C51.4729 27.7656 51.7395 27.843 51.8685 27.9028ZM39.1353 52.1746C39.3848 52.424 39.3848 52.4324 39.3848 53.4642C39.3848 55.2352 39.4622 55.1925 36.4016 55.1925C34.0199 55.1925 33.9169 55.1754 33.59 54.7367C33.4523 54.5475 33.4008 54.3323 33.3836 53.8254C33.3405 53.0172 33.4782 52.4927 33.7963 52.1662L34.037 51.9255H36.4614H38.8858L39.1353 52.1746Z" fill="white"/>
<path d="M33.5038 17.1989C30.2451 17.4911 27.2619 18.8155 25.4562 20.7841C23.2553 23.1658 22.1201 26.3641 21.8794 30.835L21.8191 31.9697L22.0858 32.2364C22.2318 32.3741 22.4382 32.4942 22.55 32.4942C22.8166 32.4942 23.3926 32.1075 24.691 31.0585C26.6257 29.511 27.9065 28.7027 29.3682 28.1268C29.8412 27.9376 30.3314 27.7572 30.4603 27.7312L30.6926 27.6797L30.4348 28.2214C30.1598 28.8233 29.9275 29.7517 29.9275 30.3193C29.9275 30.5169 29.9706 30.9815 30.0309 31.3511C30.1083 31.8927 30.1686 32.0648 30.3661 32.254C30.4951 32.3917 30.6926 32.4947 30.8048 32.4947C30.9254 32.4947 31.3724 32.2368 31.8366 31.9099C33.9174 30.4223 35.9981 29.3909 38.0529 28.8233C38.8441 28.6086 39.0333 28.5826 40.4171 28.591C41.8013 28.591 41.9733 28.6081 42.5836 28.8145C44.3463 29.4076 45.7305 30.6546 46.6417 32.4771C46.9515 33.0878 47.1491 33.2682 47.5187 33.2682C47.5961 33.2682 47.7681 33.1476 47.9142 33.0015L48.1809 32.7437L48.1206 31.3938C47.9573 27.5504 47.45 25.1519 46.3496 22.9506C45.0599 20.3969 43.0909 18.7293 40.3313 17.8435C38.3614 17.2161 35.9541 16.9838 33.5038 17.1989ZM37.9658 18.6949C40.6313 19.0989 42.746 20.2081 44.1219 21.9193C45.5576 23.7162 46.2369 25.7367 46.6497 29.5282L46.7099 30.0439L46.1595 29.5194C45.1365 28.5307 43.8812 27.8513 42.4195 27.4901C41.3534 27.2235 39.3672 27.2235 38.1291 27.4901C36.2718 27.8857 34.1739 28.7797 32.2656 29.9748C31.7755 30.2841 31.3544 30.5076 31.3284 30.4821C31.2167 30.3787 31.4833 29.2527 31.7323 28.7454C31.8784 28.4445 32.2137 27.9288 32.4803 27.5847C32.996 26.9225 33.0994 26.5617 32.8499 26.2607C32.6348 26.0029 32.3941 25.9769 31.5603 26.0975C29.1187 26.4587 26.84 27.5504 24.3381 29.5625C23.3666 30.3365 23.3495 30.3536 23.3235 30.1213C23.2804 29.786 23.4612 28.3072 23.6588 27.3357C24.5788 22.8389 27.115 20.0189 31.1731 18.9959C31.9985 18.7895 32.7809 18.6606 34.0965 18.5317C34.7503 18.4626 37.1061 18.566 37.9658 18.6949Z" fill="white"/>
<path d="M22.146 33.1217C21.9396 33.2937 21.8965 33.4055 21.8622 33.8525C21.7764 35.0735 22.1288 37.3004 22.6788 38.9337C24.467 44.3074 29.6 49.1478 34.1654 49.7841C36.779 50.1453 40.1582 48.5978 43.0468 45.7C46.0217 42.7168 47.7412 39.1655 48.0681 35.3226C48.1544 34.4285 48.1456 34.2565 48.025 34.0761C47.8446 33.7923 47.5868 33.6805 47.2858 33.7408C46.899 33.8266 46.8044 34.0673 46.701 35.2284C46.529 37.1715 46.0476 38.8655 45.1962 40.585C43.6831 43.6113 41.2499 46.1219 38.4814 47.4974C37.054 48.2023 36.2031 48.4346 34.9992 48.4346C33.8214 48.4346 32.9528 48.2111 31.6033 47.5489C30.2019 46.8611 29.2304 46.1475 27.9408 44.875C26.2556 43.1986 25.112 41.5046 24.3125 39.5013C23.6332 37.7989 23.341 36.4063 23.2464 34.4888C23.1861 33.2251 23.1175 33.0531 22.6533 32.9585C22.4469 32.9241 22.3352 32.9585 22.146 33.1217Z" fill="white"/>
</svg>
