<svg width="20" height="20" viewBox="0 0 20 20" fill="none" xmlns="http://www.w3.org/2000/svg">
<path d="M13.2477 0.666626C13.2477 0.666626 14.8967 4.70096 7.82913 7.41083C3.98877 8.88283 1.03913 12.6558 4.56099 18.4842C4.85266 15.879 6.10331 10.135 11.4811 8.82423C11.4811 8.82423 6.47578 10.6958 6.03363 19.1678C8.60553 19.5289 14.6375 19.7716 16.4283 14.537C18.7931 7.62109 13.2477 0.666626 13.2477 0.666626Z" fill="#3A7F0D"/>
<path d="M6.03596 19.1326C11.4959 16.9535 15.4687 11.8488 16.0171 5.75503C14.9009 2.74415 13.2477 0.666626 13.2477 0.666626C13.2477 0.666626 14.8967 4.70096 7.82913 7.41083C3.98877 8.88283 1.03913 12.6558 4.56099 18.4842C4.85266 15.879 6.10331 10.135 11.4811 8.82423C11.4807 8.82423 6.49037 10.6912 6.03596 19.1326Z" fill="#49A010"/>
</svg>
