<svg width="624" height="503" viewBox="0 0 624 503" fill="none" xmlns="http://www.w3.org/2000/svg">
<path fill-rule="evenodd" clip-rule="evenodd" d="M468.287 409.553C472.164 405.114 565.659 441.899 533.582 334.785C501.505 227.671 591.656 226.966 598.953 184.402C606.326 141.838 659.459 120.557 573.869 116.046C498.996 112.1 533.278 130.775 490.863 103.221C485.086 99.4861 459.85 142.755 451.032 134.439C380.113 68.127 399.8 65.4491 372.891 42.335C345.907 19.2209 374.26 -22.2153 299.235 20.5598C224.211 63.2646 292.394 51.778 209.16 91.2411C126.003 130.704 137.556 110.268 94.5334 128.942C51.5863 147.617 6.35881 208.362 2.33014 248.953C-1.77454 289.614 33.0392 359.379 70.9695 387.919C108.9 416.389 169.102 457.191 210.301 483.758C251.499 510.325 372.5 499.5 383.5 496.5C402.195 496.5 468.287 409.553 468.287 409.553Z" stroke="#FF0000" stroke-width="2.53" stroke-linecap="square"/>
</svg>
