<svg width="40" height="40" viewBox="0 0 40 40" fill="none" xmlns="http://www.w3.org/2000/svg">
<path d="M20.0003 0.400024C12.1043 0.400024 5.70034 5.60002 5.65234 13.472C5.65234 13.788 5.65234 14.204 5.65234 14.748C5.65234 23.824 20.0003 39.6 20.0003 39.6C20.0003 39.6 34.3483 23.532 34.3483 15.1C34.3483 14.432 34.3483 14.828 34.3483 14.828V13.716C34.3483 5.79202 27.9243 0.400024 20.0003 0.400024ZM32.5163 14.944C32.5163 14.944 32.5163 14.596 32.5163 15.18C32.5163 22.532 20.0003 36.552 20.0003 36.552C20.0003 36.552 7.48434 22.788 7.48434 14.872C7.48434 14.396 7.48434 14.032 7.48434 13.76C7.48434 13.788 7.48434 13.812 7.48434 13.84C7.48434 13.84 7.48434 12.04 7.48434 13.76C7.52434 6.89202 13.1123 2.35602 20.0003 2.35602C26.9123 2.35602 32.5203 7.06002 32.5203 13.976L32.5163 14.944Z" fill="#FF0000"/>
<path d="M20.0007 6.896C16.5807 6.896 13.8047 9.668 13.8047 13.092C13.8047 16.516 16.5807 19.288 20.0007 19.288C23.4207 19.288 26.1967 16.516 26.1967 13.092C26.1967 9.668 23.4247 6.896 20.0007 6.896ZM20.0007 17.544C17.5407 17.544 15.5487 15.552 15.5487 13.092C15.5487 10.632 17.5447 8.64 20.0007 8.64C22.4607 8.64 24.4527 10.632 24.4527 13.092C24.4527 15.552 22.4607 17.544 20.0007 17.544Z" fill="#FF0000"/>
</svg>
