<svg width="50" height="50" viewBox="0 0 50 50" fill="none" xmlns="http://www.w3.org/2000/svg">
<path d="M15.625 27.3437C20.4445 27.4246 26.8287 25.476 25.433 23.6751C24.4286 22.6376 20.9873 21.0937 15.625 21.0937C10.8055 21.0129 4.42133 22.9615 5.81695 24.7623C6.82141 25.7999 10.2627 27.3437 15.625 27.3437ZM15.625 22.6562C19.5301 22.6562 22.2115 23.5141 23.5234 24.2187C20.1352 26.2618 11.1006 26.2557 7.72656 24.2187C9.03852 23.5141 11.7199 22.6562 15.625 22.6562Z" fill="white"/>
<path d="M34.375 8.59375C26.9276 8.59375 21.0937 11.3392 21.0937 14.8438V18.5087C14.4922 16.8542 2.2725 18.9537 2.34375 24.2188V35.1562C2.34375 38.6608 8.17758 41.4062 15.625 41.4062C23.0724 41.4062 28.9062 38.6608 28.9062 35.1562V31.4804C35.5599 33.1529 47.7151 31.0395 47.6562 25.7812V14.8438C47.6562 11.3392 41.8224 8.59375 34.375 8.59375ZM34.375 10.1562C41.2812 10.1562 46.0937 12.6266 46.0937 14.8438C46.0937 17.0609 41.2812 19.5312 34.375 19.5312C27.4687 19.5312 22.6562 17.0609 22.6562 14.8438C22.6562 12.6266 27.4687 10.1562 34.375 10.1562ZM15.625 19.5312C19.6444 19.5984 25.7259 20.3916 27.2755 23.7682C27.7842 26.5078 22.674 28.8166 15.625 28.9062C8.71875 28.9062 3.90625 26.4357 3.90625 24.2188C3.90625 22.0018 8.71875 19.5312 15.625 19.5312ZM27.3437 35.1562C27.3437 37.3734 22.5312 39.8438 15.625 39.8438C8.71875 39.8438 3.90625 37.3734 3.90625 35.1562V27.2056C9.34828 31.6008 21.8948 31.6048 27.3437 27.2056V35.1562ZM46.0937 25.7812C45.9315 29.6989 34.7439 31.4776 28.9062 29.895C28.8852 29.6691 28.9616 23.5747 28.8445 23.6253C28.5448 21.6002 25.8705 19.7669 22.6562 18.8888V17.8306C28.0983 22.2258 40.6448 22.2298 46.0937 17.8306V25.7812Z" fill="white"/>
<path d="M34.375 17.9687C39.1945 18.0496 45.5787 16.101 44.183 14.3001C43.1786 13.2626 39.7373 11.7187 34.375 11.7187C29.5555 11.6379 23.1713 13.5865 24.567 15.3873C25.5714 16.4249 29.0127 17.9687 34.375 17.9687ZM34.375 13.2812C38.2801 13.2812 40.9615 14.1391 42.2734 14.8437C38.8849 16.8868 29.8503 16.8807 26.4759 14.8437C27.7885 14.1391 30.4699 13.2812 34.375 13.2812Z" fill="white"/>
<path d="M7.8125 32.8125C8.0197 32.8125 8.21841 32.7302 8.36493 32.5837C8.51144 32.4372 8.59375 32.2385 8.59375 32.0312C8.59375 31.824 8.51144 31.6253 8.36493 31.4788C8.21841 31.3323 8.0197 31.25 7.8125 31.25C7.1909 31.25 6.59476 31.4969 6.15522 31.9365C5.71568 32.376 5.46875 32.9721 5.46875 33.5938C5.46875 34.2154 5.71568 34.8115 6.15522 35.251C6.59476 35.6906 7.1909 35.9375 7.8125 35.9375C8.0197 35.9375 8.21841 35.8552 8.36493 35.7087C8.51144 35.5622 8.59375 35.3635 8.59375 35.1562C8.59375 34.949 8.51144 34.7503 8.36493 34.6038C8.21841 34.4573 8.0197 34.375 7.8125 34.375C7.6053 34.375 7.40659 34.2927 7.26007 34.1462C7.11356 33.9997 7.03125 33.801 7.03125 33.5938C7.03125 33.3865 7.11356 33.1878 7.26007 33.0413C7.40659 32.8948 7.6053 32.8125 7.8125 32.8125Z" fill="white"/>
<path d="M12.5 35.1562C12.7072 35.1562 12.9059 35.0739 13.0524 34.9274C13.1989 34.7809 13.2812 34.5822 13.2812 34.375C13.2812 34.1678 13.1989 33.9691 13.0524 33.8226C12.9059 33.6761 12.7072 33.5938 12.5 33.5938C11.8784 33.5938 11.2823 33.8407 10.8427 34.2802C10.4032 34.7198 10.1562 35.3159 10.1562 35.9375C10.1562 36.5591 10.4032 37.1552 10.8427 37.5948C11.2823 38.0343 11.8784 38.2812 12.5 38.2812C12.7072 38.2812 12.9059 38.1989 13.0524 38.0524C13.1989 37.9059 13.2812 37.7072 13.2812 37.5C13.2812 37.2928 13.1989 37.0941 13.0524 36.9476C12.9059 36.8011 12.7072 36.7188 12.5 36.7188C12.2928 36.7188 12.0941 36.6364 11.9476 36.4899C11.8011 36.3434 11.7188 36.1447 11.7188 35.9375C11.7188 35.7303 11.8011 35.5316 11.9476 35.3851C12.0941 35.2386 12.2928 35.1562 12.5 35.1562Z" fill="white"/>
</svg>
