<svg width="25" height="25" viewBox="0 0 25 25" fill="none" xmlns="http://www.w3.org/2000/svg">
<path d="M14.0125 23.535C14.07 23.5275 14.1275 23.52 14.185 23.51C14.1225 23.5125 14.065 23.52 14.0125 23.535Z" fill="white"/>
<path d="M14.2224 24.7026C14.2474 24.7001 14.2749 24.6976 14.3024 24.6926C14.2774 24.6951 14.2499 24.6976 14.2224 24.7026Z" fill="white"/>
<path d="M12.5 0.297607C5.735 0.297607 0.25 5.76011 0.25 12.4976C0.25 19.2351 5.735 24.6976 12.5 24.6976C13.0575 24.6976 13.6025 24.6551 14.14 24.5851C14.1475 24.5851 14.1525 24.5876 14.16 24.5876C14.4825 24.5876 14.745 24.3276 14.745 24.0051C14.745 23.6826 14.4825 23.4226 14.16 23.4226C14.12 23.4226 14.08 23.4276 14.0425 23.4351C14.085 23.4251 14.1325 23.4201 14.18 23.4176C13.6325 23.5001 13.0725 23.5451 12.5025 23.5451C6.375 23.5426 1.4125 18.5976 1.4125 12.5001C1.4125 6.40011 6.375 1.45511 12.5 1.45511C18.625 1.45511 23.5875 6.40011 23.5875 12.5001C23.5875 15.9876 21.9625 19.0951 19.43 21.1201C19.425 21.1251 19.4175 21.1301 19.41 21.1351L19.4075 21.1376L19.4025 21.0651C19.1275 18.5051 17.45 16.3676 15.1525 15.4201C16.4425 14.5651 17.295 13.1026 17.295 11.4426C17.295 8.80511 15.1475 6.66761 12.5 6.66761C9.8525 6.66761 7.705 8.80511 7.705 11.4426C7.705 13.1001 8.555 14.5601 9.8425 15.4176C8.5425 15.9551 7.44 16.8726 6.68 18.0351C6.6775 18.0376 6.6775 18.0401 6.675 18.0401C6.6675 18.0526 6.6575 18.0626 6.65 18.0751C6.655 18.0676 6.66 18.0651 6.665 18.0576C6.6 18.1601 6.5625 18.2801 6.5625 18.4101C6.5625 18.7801 6.8625 19.0776 7.2325 19.0776C7.415 19.0776 7.5825 19.0051 7.7025 18.8851C7.75 18.8376 7.79 18.7826 7.8225 18.7226C7.84 18.7001 7.86 18.6776 7.8775 18.6501C8.8875 17.1876 10.58 16.2276 12.4975 16.2276C15.4975 16.2276 17.9475 18.5776 18.0925 21.5276C18.0925 21.5276 18.1 21.8026 18.0775 21.9726C18.075 21.9751 18.07 21.9776 18.07 21.9776C18.065 22.0001 18.065 22.0276 18.06 22.0551C18.06 22.0601 18.0575 22.0651 18.0575 22.0701C18.0575 22.0701 18.0575 22.0701 18.06 22.0701C18.0425 22.2376 18.055 22.4326 18.1225 22.5401C18.34 22.8976 18.65 22.8701 18.8925 22.8601C19.065 22.8251 19.425 22.5651 19.5 22.5101C22.675 20.3051 24.75 16.6426 24.75 12.5001C24.75 5.76011 19.265 0.297607 12.5 0.297607ZM13.065 14.9176C12.8775 14.9026 12.69 14.8901 12.5 14.8901C12.3075 14.8901 12.1175 14.9001 11.93 14.9151C10.295 14.6451 9.05 13.2351 9.05 11.5301C9.05 9.63261 10.595 8.09261 12.5 8.09261C14.405 8.09261 15.95 9.63011 15.95 11.5301C15.95 13.2351 14.7025 14.6476 13.065 14.9176Z" fill="white"/>
</svg>
