<svg width="50" height="50" viewBox="0 0 50 50" fill="none" xmlns="http://www.w3.org/2000/svg">
<path d="M29.4465 3.78986C29.236 3.89486 28.5665 4.34435 27.964 4.79385C26.1855 6.09435 25.1045 6.51536 24.053 6.28586C23.355 6.13286 22.963 5.91286 21.997 5.09036C20.8685 4.13386 20.4575 3.94286 19.5965 3.94286C18.3535 3.94286 16.7085 4.63136 14.624 6.00836C12.7495 7.24186 11.8985 8.36086 11.8985 9.58485C11.8985 10.3119 12.061 10.7709 12.6825 11.7364C12.931 12.1379 13.1415 12.5494 13.1415 12.6639C13.1415 12.8934 13.065 12.9124 11.382 13.1614L10.225 13.3334L7.0695 11.5259L3.914 9.71836L3.6365 10.2729C3.254 11.0189 2.862 12.2044 2.709 13.0654C2.5275 14.1079 2.5655 15.8959 2.795 16.9479C2.9765 17.7704 3.579 19.4054 3.78 19.6064C3.828 19.6639 3.866 19.7594 3.866 19.8264C3.866 19.9219 3.5025 19.9509 2.183 19.9509H0.5L0.548 23.1734C0.5765 25.4204 0.6435 26.7114 0.749 27.3904C1.5905 32.8604 3.924 37.5269 7.7395 41.3234C9.0115 42.5954 10.025 43.4274 11.584 44.4599C12.617 45.1389 12.76 45.2729 12.76 45.5024C12.76 45.6554 12.875 45.8944 13.0375 46.0759L13.315 46.3914H25H36.686L36.9635 46.0759C37.1355 45.8849 37.241 45.6649 37.241 45.4924C37.241 45.2534 37.3365 45.1579 37.968 44.7654C43.4095 41.3704 47.464 35.6809 48.86 29.4744C49.3285 27.3704 49.405 26.5864 49.453 23.1724L49.501 19.9499H47.9995C46.546 19.9499 46.498 19.9404 46.6225 19.7684C47.4165 18.6879 48.4395 17.0524 48.774 16.3639C49.4815 14.9009 49.625 14.0209 49.3 13.1699C49.0325 12.4529 48.669 12.0509 48.009 11.7259C46.8805 11.1714 45.5515 11.1329 43.027 11.5824C41.5545 11.8404 41.2005 11.8694 41.1145 11.7259C41.076 11.6684 41.2295 11.2479 41.4395 10.7889C42.214 9.09636 42.2045 8.39835 41.4205 7.54686C40.7415 6.81036 39.422 6.29436 37.232 5.89236C34.4205 5.38536 32.852 5.58635 31.5515 6.62885L31.0735 7.00185V5.75986C31.0735 4.35386 30.9685 3.96185 30.538 3.74185C30.1735 3.55085 29.896 3.56036 29.4465 3.78986ZM20.8115 6.75436C22.523 8.23635 24.034 8.66685 25.88 8.19836C26.7215 7.97836 27.5725 7.57685 28.4235 6.98386L29.0165 6.57286V6.85986C29.0165 7.37635 28.8155 8.99236 28.7295 9.21236C28.605 9.50885 27.821 9.71936 26.8265 9.71936C25.966 9.71936 25.2675 9.58535 23.996 9.18385C23.575 9.04985 23.0205 8.89685 22.7625 8.84935C21.8825 8.68686 21.156 9.06936 21.022 9.78635C20.888 10.4844 21.3185 12.2634 22.246 14.8644C22.5135 15.6104 22.7145 16.2414 22.6955 16.2604C22.6765 16.2794 22.3895 16.4324 22.0645 16.6049C21.175 17.0639 20.41 17.8099 19.7695 18.7949C19.76 18.8139 18.268 17.9724 16.451 16.9299C14.634 15.8874 13.1805 15.0079 13.2185 14.9694C13.257 14.9409 13.4765 14.8644 13.6965 14.7974C14.3085 14.6254 14.911 13.9844 15.1025 13.3054C15.351 12.4639 15.1695 11.8039 14.3375 10.5419C13.7735 9.69086 13.8115 9.33686 14.5575 8.61036C15.2745 7.89336 17.7325 6.43935 18.727 6.12386C18.947 6.05685 19.301 5.99936 19.5205 5.99936C19.884 5.98935 19.989 6.05635 20.8115 6.75436ZM36.38 7.80635C38.2545 8.11235 39.832 8.63836 39.899 8.99236C39.918 9.08786 39.746 9.55635 39.526 10.0444C39.153 10.8284 39.1145 10.9909 39.105 11.6414C39.105 12.2819 39.1335 12.4159 39.392 12.8274C39.593 13.1429 39.8415 13.3724 40.1855 13.5734C40.836 13.9369 41.505 13.9464 43.0735 13.6309C43.915 13.4589 44.4985 13.4109 45.5885 13.4014H47.0135L47.243 13.6789C47.4345 13.8894 47.4725 14.0134 47.4245 14.2529C47.233 15.1519 45.885 17.4184 44.479 19.1969L43.886 19.9524H42.5855H41.285V18.9674C41.2755 17.5329 40.8545 16.3949 39.994 15.4959C39.755 15.2379 39.7265 15.1614 39.8125 14.9989C39.87 14.8939 39.9175 14.6644 39.9175 14.5014C39.9175 14.0709 39.382 13.5449 38.942 13.5449C38.636 13.5449 38.2535 13.7364 38.0525 13.9944C37.976 14.0899 37.871 14.0899 37.488 13.9754C36.9525 13.8129 35.671 13.7939 35.04 13.9374C34.3515 14.0904 33.271 14.6739 32.7735 15.1519C32.152 15.7449 31.7405 16.3664 31.4345 17.1504C31.2145 17.7144 31.1765 17.9539 31.1765 18.8719C31.167 19.8184 31.148 19.9524 31.0045 19.9524C30.8995 19.9524 30.6985 19.6849 30.4305 19.1589C29.857 18.0494 28.862 17.0644 27.772 16.5194C26.9305 16.1084 25.9265 15.8404 25.19 15.8404H24.7595L24.262 14.4634C23.7745 13.1244 23.1525 11.1449 23.2005 11.1069C23.2195 11.0879 23.5735 11.1834 23.994 11.3079C26.5665 12.0919 28.5745 11.9199 30.2865 10.7724C30.9655 10.3134 31.2235 10.0744 32.4 8.71635C33.165 7.84636 33.471 7.71236 34.7525 7.71236C35.3085 7.71086 36.0355 7.75835 36.38 7.80635ZM6.381 13.4864L7.691 14.2324V14.8729C7.691 17.1774 9.355 19.2429 11.669 19.7979C12.195 19.9224 12.0515 19.9319 9.3165 19.9414L6.4 19.9509L5.9985 19.3484C5.1185 18.0189 4.7265 16.8334 4.6595 15.2364C4.602 14.0314 4.7645 12.6544 4.956 12.7024C5.0135 12.7214 5.6545 13.0659 6.381 13.4864ZM11.134 16.2214C13.917 17.8184 13.9455 17.8469 12.7885 17.8469C11.593 17.8469 10.4265 17.1104 9.9865 16.0684C9.7285 15.4754 9.7475 15.4084 10.111 15.6284C10.273 15.7339 10.742 16.0019 11.134 16.2214ZM37.5655 16.1644C38.139 16.4514 38.6555 16.9584 38.971 17.5799C39.2195 18.0579 39.325 19.2724 39.1625 19.6839L39.0575 19.9514H36.1885H33.3195L33.2525 19.6839C33.1185 19.1864 33.1855 18.1919 33.396 17.7329C33.6255 17.2164 34.2855 16.4609 34.6965 16.2504C35.6245 15.7624 36.686 15.7339 37.5655 16.1644ZM25.679 17.9429C26.511 18.1054 27.343 18.5454 27.9265 19.1384C28.2135 19.4349 28.443 19.7314 28.443 19.8174C28.443 19.9319 27.9745 19.9514 25.029 19.9319C22.562 19.9129 21.615 19.8744 21.5865 19.7884C21.51 19.5779 22.581 18.6219 23.212 18.3159C24.1585 17.8759 24.8085 17.7804 25.679 17.9429ZM17.273 19.7789C17.4835 19.9414 17.3975 19.9509 15.389 19.9414C13.3615 19.9319 13.3045 19.9319 13.8495 19.7979C14.4135 19.6639 15.59 19.1379 15.6855 18.9754C15.7335 18.8994 16.862 19.4634 17.273 19.7789ZM47.4725 22.9634V23.9674H25H2.5275V22.9634V21.9594H25H47.4725V22.9634ZM3.7035 26.4444C4 27.0849 4.813 27.2474 5.31 26.7504C5.463 26.5974 5.5875 26.3774 5.5875 26.2724C5.5875 26.0809 5.6355 26.0714 6.6395 26.0714C7.6435 26.0714 7.6915 26.0809 7.6915 26.2724C7.6915 26.3774 7.816 26.5974 7.969 26.7504C8.4665 27.2474 9.3845 27.0564 9.614 26.4059L9.7385 26.0714H10.7235H11.7085L11.8425 26.3964C12.0145 26.8074 12.33 27.0274 12.7605 27.0274C13.191 27.0274 13.5065 26.8074 13.6785 26.3964L13.8125 26.0714H14.7975L15.773 26.0809L15.945 26.4444C16.2415 27.0854 17.0545 27.2474 17.5515 26.7504C17.7045 26.5974 17.829 26.3774 17.829 26.2724C17.829 26.0809 17.877 26.0714 18.881 26.0714C19.885 26.0714 19.933 26.0809 19.933 26.2724C19.933 26.3774 20.0575 26.5974 20.2105 26.7504C20.7175 27.2474 21.626 27.0564 21.8555 26.4059L21.98 26.0619L22.9935 26.0904C23.95 26.1189 23.9975 26.1289 24.0265 26.3294C24.0745 26.6639 24.581 27.0274 24.9925 27.0274C25.4325 27.0274 25.748 26.8074 25.92 26.3964L26.054 26.0714H27.039H28.024L28.148 26.4059C28.3775 27.0559 29.2955 27.2474 29.793 26.7504C29.946 26.5974 30.0705 26.3774 30.0705 26.2724C30.0705 26.0809 30.1185 26.0714 31.1225 26.0714C32.1265 26.0714 32.1745 26.0809 32.1745 26.2724C32.1745 26.3774 32.299 26.5974 32.452 26.7504C32.949 27.2474 33.762 27.0849 34.0585 26.4444L34.2305 26.0809L35.206 26.0714C36.172 26.0714 36.191 26.0714 36.2485 26.3104C36.344 26.6834 36.813 27.0274 37.2335 27.0274C37.6735 27.0274 37.989 26.8074 38.161 26.3964L38.295 26.0714H39.28H40.265L40.3895 26.4059C40.619 27.0559 41.537 27.2474 42.0345 26.7504C42.1875 26.5974 42.312 26.3774 42.312 26.2724C42.312 26.0809 42.36 26.0714 43.364 26.0714C44.368 26.0714 44.416 26.0809 44.416 26.2724C44.416 26.3774 44.5405 26.5974 44.6935 26.7504C45.1905 27.2474 46.0035 27.0849 46.3 26.4444C46.4625 26.0904 46.4915 26.0809 46.931 26.0714C47.323 26.0714 47.39 26.0999 47.342 26.2339C47.323 26.3294 47.275 26.6644 47.237 26.9799C47.0075 29.0264 46.185 31.7324 45.133 33.8649C42.9815 38.2354 39.5675 41.7349 35.35 43.8964L34.295 44.4319H25H15.705L14.6915 43.9059C10.4165 41.7254 7.0315 38.2544 4.87 33.8649C3.8185 31.7324 2.996 29.0264 2.7665 26.9799C2.7285 26.6644 2.6805 26.3299 2.6615 26.2339C2.6135 26.0999 2.6805 26.0714 3.0725 26.0714C3.5125 26.0809 3.541 26.0904 3.7035 26.4444Z" fill="white"/>
</svg>
