<svg width="25" height="25" viewBox="0 0 25 25" fill="none" xmlns="http://www.w3.org/2000/svg">
<path d="M22.798 23.8259L17.4865 18.5122C20.6743 14.8261 20.5171 9.24531 17.0173 5.74776C15.1855 3.91592 12.7835 3 10.3814 3C7.98163 3 5.57959 3.91592 3.74775 5.74776C0.0840817 9.41143 0.0840817 15.3559 3.74775 19.0173C5.57959 20.8492 7.97939 21.7651 10.3814 21.7651C12.568 21.7651 14.7545 21.0041 16.5122 19.4865L21.8259 24.798C21.9606 24.9327 22.1357 25 22.3131 25C22.4882 25 22.6655 24.9327 22.8002 24.798C23.0673 24.5308 23.0673 24.0953 22.798 23.8259ZM13.3963 19.8031C12.4378 20.1914 11.4231 20.389 10.3814 20.389C9.33979 20.389 8.32735 20.1914 7.36653 19.8031C6.37429 19.4012 5.48306 18.8086 4.7198 18.0453C3.95429 17.2798 3.36388 16.3908 2.96204 15.3986C2.57367 14.4378 2.37612 13.4231 2.37612 12.3837C2.37612 11.342 2.57367 10.3296 2.96204 9.36878C3.36388 8.37653 3.95653 7.48531 4.7198 6.7198C5.48531 5.95653 6.37429 5.36388 7.36653 4.96204C8.3251 4.57367 9.33979 4.37612 10.3792 4.37612C11.4208 4.37612 12.4333 4.57367 13.3941 4.96204C14.3863 5.36388 15.2775 5.95653 16.0431 6.7198C16.8063 7.48306 17.399 8.37429 17.8008 9.36653C18.1892 10.3251 18.3867 11.3398 18.3867 12.3814C18.3867 13.4231 18.1892 14.4355 17.8008 15.3963C17.399 16.3886 16.8063 17.2798 16.0431 18.0453C15.2798 18.8086 14.3886 19.4012 13.3963 19.8031Z" fill="white"/>
</svg>
