<svg width="27" height="30" viewBox="0 0 27 30" fill="none" xmlns="http://www.w3.org/2000/svg">
<path d="M26.3551 30H0.644125C0.553387 30.0006 0.463552 29.9817 0.380588 29.9445C0.297623 29.9073 0.223427 29.8526 0.162927 29.7841C0.102427 29.7156 0.057008 29.6349 0.0296858 29.5473C0.00236367 29.4597 -0.0062361 29.3672 0.00445757 29.2759L1.33468 9.70645C1.35306 9.54734 1.42822 9.40051 1.54602 9.2936C1.66383 9.18668 1.81616 9.12704 1.97435 9.12589H7.08202V6.52315C7.08202 4.79311 7.76071 3.13392 8.96877 1.91059C10.1768 0.687259 11.8153 0 13.5238 0C15.2323 0 16.8707 0.687259 18.0788 1.91059C19.2869 3.13392 19.9656 4.79311 19.9656 6.52315V9.12589H25.1061C25.2654 9.12706 25.4187 9.18755 25.5368 9.29582C25.6549 9.40409 25.7295 9.55258 25.7464 9.71298L26.9703 29.152C27.0007 29.2497 27.0079 29.3534 26.9913 29.4545C26.9747 29.5556 26.9349 29.6513 26.875 29.7339C26.8151 29.8165 26.7368 29.8836 26.6465 29.9298C26.5561 29.9761 26.4563 30.0001 26.3551 30ZM18.6772 6.52315C18.6772 5.13912 18.1343 3.81176 17.1678 2.8331C16.2013 1.85444 14.8906 1.30463 13.5238 1.30463C12.157 1.30463 10.8462 1.85444 9.87978 2.8331C8.91333 3.81176 8.37038 5.13912 8.37038 6.52315V9.12589H18.6772V6.52315ZM24.5283 10.4305H19.9656V11.9243C20.1612 12.037 20.3239 12.2002 20.4371 12.3973C20.5502 12.5944 20.6098 12.8183 20.6097 13.0463C20.6097 13.3923 20.474 13.7242 20.2324 13.9688C19.9908 14.2135 19.6631 14.3509 19.3214 14.3509C18.9797 14.3509 18.652 14.2135 18.4104 13.9688C18.1688 13.7242 18.033 13.3923 18.033 13.0463C18.0329 12.8183 18.0925 12.5944 18.2057 12.3973C18.3188 12.2002 18.4815 12.037 18.6772 11.9243V10.4305H8.37038V11.9243C8.56606 12.037 8.72876 12.2002 8.84191 12.3973C8.95506 12.5944 9.01463 12.8183 9.01455 13.0463C9.01455 13.3923 8.87882 13.7242 8.6372 13.9688C8.39559 14.2135 8.06789 14.3509 7.7262 14.3509C7.38451 14.3509 7.05681 14.2135 6.8152 13.9688C6.57358 13.7242 6.43785 13.3923 6.43785 13.0463C6.43777 12.8183 6.49734 12.5944 6.61049 12.3973C6.72364 12.2002 6.88634 12.037 7.08202 11.9243V10.4305H2.5496L1.3656 28.6954H25.624L24.5283 10.4305Z" fill="white"/>
</svg>
