<svg width="626" height="502" viewBox="0 0 626 502" fill="none" xmlns="http://www.w3.org/2000/svg">
<path fill-rule="evenodd" clip-rule="evenodd" d="M469.791 407.923C473.68 403.501 567.478 440.139 535.297 333.454C503.116 226.768 593.558 226.066 600.878 183.673C608.275 141.279 661.58 120.082 575.713 115.59C500.599 111.66 534.992 130.26 492.44 102.816C486.644 99.0961 461.327 142.192 452.481 133.909C381.332 67.8625 401.083 65.1953 374.088 42.1737C347.016 19.152 375.46 -22.1185 300.194 20.4856C224.928 63.0195 293.331 51.5789 209.829 90.8841C126.403 130.189 137.994 109.835 94.8319 128.435C51.7462 147.034 6.37285 207.536 2.33118 247.965C-1.78674 288.463 33.1393 357.949 71.192 386.375C109.245 414.731 169.641 455.37 210.972 481.831C252.304 508.292 375.918 500.29 384.535 492.289C393.152 484.217 469.791 407.923 469.791 407.923Z" stroke="#FF0000" stroke-width="2.53" stroke-linecap="square"/>
</svg>
