<svg width="50" height="43" viewBox="0 0 50 43" fill="none" xmlns="http://www.w3.org/2000/svg">
<g clip-path="url(#clip0_1_232)">
<path d="M26.0295 25.8219C26.1882 24.707 26.709 23.7061 27.4699 22.9492C28.3895 22.0296 29.6631 21.4559 31.071 21.4559C32.4789 21.4559 33.7484 22.0256 34.672 22.9492C35.433 23.7101 35.9538 24.707 36.1125 25.8219H39.0951C38.855 24.0478 38.0168 22.465 36.792 21.2809C35.3923 19.9259 33.4839 19.0918 31.3802 19.0918C29.2806 19.0918 27.3722 19.9219 25.9725 21.2728C24.7437 22.4569 23.9054 24.0438 23.6654 25.8219H26.0295ZM28.5319 24.0112C28.0477 24.4954 27.6978 25.1221 27.5553 25.8219H34.5825C34.4401 25.1221 34.0902 24.4954 33.606 24.0112C32.9549 23.3602 32.0597 22.9614 31.071 22.9614C30.0781 22.9614 29.1789 23.3602 28.5319 24.0112ZM4.90723 5.71289C4.49219 5.71289 4.15447 5.37516 4.15447 4.96012C4.15447 4.54508 4.49219 4.20736 4.90723 4.20736H5.53793V3.13314C5.53793 2.27865 5.87159 1.50146 6.40463 0.935872C6.95395 0.358073 7.71078 0 8.54493 0C9.37908 0 10.1359 0.358073 10.6812 0.939941C10.8561 1.12305 11.0067 1.33057 11.1328 1.55436C11.6537 1.09456 12.325 0.82194 13.0575 0.82194C13.8916 0.82194 14.6484 1.18001 15.1937 1.76188C15.7308 2.32747 16.0604 3.10465 16.0604 3.95915V4.21549H18.2455C18.2943 4.21549 18.3472 4.21956 18.3919 4.23177C19.1691 4.35384 19.93 4.63053 20.6624 5.09033C21.2972 5.4891 21.9157 6.0262 22.5057 6.72201L45.3329 5.94482C47.2168 5.80241 48.7223 6.8929 49.471 8.3374C49.7518 8.87858 49.9308 9.47266 49.9797 10.0667C50.0326 10.6771 49.9552 11.2915 49.7274 11.8652C49.1903 13.2324 47.8394 14.327 45.4264 14.4694C45.3939 14.4694 45.3613 14.4694 45.3329 14.4694L22.5016 12.8703C21.9116 13.6027 21.3013 14.1886 20.6706 14.6037L20.6177 14.6362C19.8608 15.1204 19.0674 15.3727 18.2373 15.3564V15.3605H16.0523V17.5171C17.5822 17.1712 19.1813 17.2241 20.6869 17.6432C22.286 18.0868 23.7793 18.9372 24.9675 20.1619C26.6317 18.575 28.89 17.5985 31.368 17.5985C33.8745 17.5985 36.1491 18.5913 37.8215 20.2108C39.3677 21.7082 40.3971 23.7386 40.6128 26.0091C41.0604 26.1719 41.4551 26.4486 41.7643 26.7944L41.805 26.8473C42.2201 27.3397 42.4723 27.9744 42.4723 28.6621C42.4723 29.1748 42.334 29.659 42.0899 30.0741H43.0176C43.7704 30.0741 44.458 30.3833 44.9544 30.8797L44.9585 30.8838C45.4549 31.3802 45.7642 32.0679 45.7642 32.8206C45.7642 33.3008 45.6421 33.7484 45.4224 34.1431H48.2625C48.6776 34.1431 49.0153 34.4808 49.0153 34.8958C49.0153 35.1237 48.9136 35.3271 48.7508 35.4655C47.4203 36.7879 45.9676 37.9476 44.3726 38.9364C42.7653 39.9333 41.0156 40.7593 39.1154 41.394C38.5946 41.569 38.0778 41.7236 37.5651 41.862C37.0524 42.0003 36.5153 42.1305 35.9538 42.2485C35.9009 42.2607 35.8521 42.2648 35.7992 42.2648H13.7044C13.619 42.2648 13.5376 42.2485 13.4603 42.2241C12.8662 42.0817 12.321 41.9393 11.8286 41.7969C11.2956 41.6463 10.7544 41.4754 10.201 41.2923C9.44011 41.036 8.70769 40.7633 8.00375 40.4744C7.2876 40.1774 6.60808 39.8682 5.96925 39.5426C4.82992 38.9648 3.78419 38.3301 2.8239 37.6424C1.86361 36.9507 0.996914 36.2101 0.219733 35.4167C-0.069167 35.1196 -0.065098 34.6476 0.227871 34.3547C0.374355 34.2122 0.565599 34.139 0.752773 34.139V34.1349H3.79232C3.5726 33.7443 3.45053 33.2926 3.45053 32.8125C3.45053 32.0557 3.75977 31.3721 4.25619 30.8716L4.30502 30.8268C4.64682 30.5013 5.06999 30.2612 5.542 30.1432V15.3483H4.71599C4.30095 15.3483 3.96322 15.0106 3.96322 14.5955C3.96322 14.1805 4.30095 13.8428 4.71599 13.8428H5.542V12.2274H4.76889C4.35385 12.2274 4.01612 11.8896 4.01612 11.4746C4.01612 11.0596 4.35385 10.7218 4.76889 10.7218H5.542V8.82975H4.76889C4.35385 8.82975 4.01612 8.49202 4.01612 8.07699C4.01612 7.66195 4.35385 7.32422 4.76889 7.32422H5.542V5.70882H4.90723V5.71289ZM18.1885 5.71289H16.0563V7.32829H17.3503C17.7653 7.32829 18.103 7.66602 18.103 8.08105C18.103 8.49609 17.7653 8.83382 17.3503 8.83382H16.0563V10.7259H17.4683C17.8833 10.7259 18.221 11.0636 18.221 11.4787C18.221 11.8937 17.8833 12.2314 17.4683 12.2314H16.0563V13.8468H18.2414V13.8509H18.2577C18.7785 13.8631 19.2953 13.6963 19.8039 13.3708L19.8486 13.3382C20.4183 12.9639 20.9798 12.4023 21.5291 11.674C21.6716 11.4543 21.9279 11.3159 22.2087 11.3363L45.3898 12.9639C47.0825 12.8499 47.994 12.1623 48.3317 11.3159C48.4701 10.966 48.5148 10.5794 48.4823 10.1929C48.4456 9.79411 48.3276 9.39534 48.1364 9.02507C47.64 8.06885 46.6594 7.34456 45.4427 7.43815L22.1843 8.23161C21.9564 8.23975 21.7245 8.14209 21.5739 7.94678C21.0205 7.24691 20.4509 6.73014 19.869 6.36393C19.3237 6.014 18.7622 5.81055 18.1885 5.71289ZM11.556 3.95101C11.556 3.99577 11.5519 4.03646 11.5438 4.07715V26.0498C11.8856 25.9033 12.2599 25.8219 12.6506 25.8219H14.5508V3.95101C14.5508 3.49528 14.3758 3.08024 14.0951 2.7832C13.8265 2.49837 13.4562 2.31934 13.0534 2.31934C12.6506 2.31934 12.2803 2.4943 12.0117 2.77913C11.731 3.08024 11.556 3.49528 11.556 3.95101ZM16.0604 19.0511V21.7407C16.6626 21.5332 17.3014 21.4315 17.9403 21.4315C18.8558 21.4315 19.7795 21.639 20.6055 22.0459L20.6462 22.0662C21.4315 22.4609 22.1232 23.0387 22.6196 23.7834C22.9411 22.8719 23.4009 22.0256 23.9746 21.2687C22.9655 20.1986 21.6797 19.4539 20.3003 19.0715C18.9168 18.6971 17.4439 18.6768 16.0604 19.0511ZM16.0604 23.3683V25.8219H21.8547C21.7733 25.3906 21.6187 25.0122 21.4111 24.6785C21.0653 24.1292 20.5607 23.702 19.9788 23.409L19.9422 23.3927C19.3319 23.0916 18.6361 22.937 17.9443 22.937C17.2811 22.937 16.6301 23.0794 16.0604 23.3683ZM7.04346 14.7013V30.0659H10.201C9.96095 29.6509 9.8226 29.1667 9.8226 28.654C9.8226 28.4668 9.84294 28.2837 9.8755 28.1047L9.88363 28.0721C9.92026 27.9053 9.97315 27.7384 10.0383 27.5798L10.0423 27.5675V3.13314C10.0423 2.67741 9.86736 2.26237 9.5866 1.96533C9.31804 1.6805 8.94776 1.50553 8.54493 1.50553C8.1421 1.50553 7.77182 1.6805 7.50326 1.96533C7.2225 2.26237 7.04753 2.67741 7.04753 3.13314V14.7013H7.04346ZM11.4868 28.0233C11.4746 28.0477 11.4624 28.0721 11.4502 28.0965L11.4421 28.1087L11.4258 28.1494C11.3973 28.2186 11.3729 28.2918 11.3566 28.3732L11.3525 28.3976C11.3363 28.479 11.3281 28.5645 11.3281 28.654C11.3281 29.0202 11.4787 29.3498 11.7188 29.5898C11.9588 29.8299 12.2925 29.9805 12.6587 29.9805H39.6525C40.0147 29.9805 40.3483 29.8299 40.5884 29.5898C40.8285 29.3498 40.979 29.0161 40.979 28.6499C40.979 28.3285 40.8651 28.0355 40.6779 27.8076L40.6454 27.7751C40.4378 27.5431 40.1571 27.3804 39.8397 27.3356C32.6294 26.4811 20.9066 27.3275 12.6587 27.3275C12.4024 27.3275 12.1623 27.4007 11.9629 27.5228C11.7635 27.6408 11.5967 27.8158 11.4868 28.0233ZM46.3501 35.6364H2.68148C3.00701 35.9049 3.34473 36.1654 3.69874 36.4176C4.58985 37.0565 5.57048 37.6506 6.64063 38.1958C7.25912 38.5091 7.90203 38.8062 8.57341 39.0828C9.2448 39.3595 9.94467 39.62 10.6771 39.8641C11.1572 40.0228 11.6781 40.1855 12.2396 40.3442C12.7767 40.4989 13.2894 40.6331 13.7817 40.7552H35.7463C36.2264 40.6535 36.7066 40.5355 37.1908 40.4053C37.7035 40.2669 38.1877 40.1204 38.6515 39.9658C40.4338 39.3677 42.0776 38.5946 43.5913 37.6546C44.5638 37.0483 45.4834 36.3729 46.3501 35.6364ZM43.0257 31.5714H6.19304C5.86752 31.5714 5.57048 31.6976 5.34669 31.9051L5.3182 31.9377C5.09441 32.1615 4.95199 32.4748 4.95199 32.8125C4.95199 33.1543 5.09034 33.4635 5.31413 33.6914C5.53793 33.9152 5.85124 34.0535 6.19304 34.0535H43.0257C43.3512 34.0535 43.6524 33.9274 43.8721 33.7199L43.9006 33.6873C44.1244 33.4635 44.2668 33.1543 44.2668 32.8125C44.2668 32.4707 44.1284 32.1615 43.9046 31.9336C43.6768 31.7098 43.3675 31.5714 43.0257 31.5714Z" fill="white"/>
</g>
<defs>
<clipPath id="clip0_1_232">
<rect width="50" height="42.2567" fill="white"/>
</clipPath>
</defs>
</svg>
