<svg width="50" height="47" viewBox="0 0 50 47" fill="none" xmlns="http://www.w3.org/2000/svg">
<path d="M25.7665 0.537945C25 0.573555 24.1665 0.608711 23.9175 0.617958C23.563 0.626747 23.4 0.679932 23.218 0.857067C22.9785 1.06982 22.969 1.12301 23.0075 1.8496L23.036 2.62058L22.7005 2.61179C22.5185 2.61179 21.6945 2.57618 20.8805 2.54103L19.3955 2.47906L19.156 2.70938C18.945 2.91334 18.9165 3.04608 18.859 3.97663C18.8205 4.54366 18.7825 5.1019 18.7825 5.20827C18.773 5.41224 18.754 5.41223 17.5275 5.41223C16.0905 5.41223 16.1765 5.47421 16.0045 4.39334C15.8705 3.62236 15.717 3.32127 15.3915 3.20611C15.248 3.15292 14.328 3.25929 12.69 3.51645C10.544 3.84436 10.18 3.9239 10.027 4.09225C9.80652 4.34016 9.81602 4.5617 10.113 6.18368C10.3045 7.21136 10.3335 7.57488 10.2565 7.62807C10.1895 7.66368 9.66252 7.73444 9.06852 7.79642C7.92852 7.91158 7.60302 8.02674 7.50702 8.38102C7.45902 8.54937 8.12952 14.2649 8.37902 15.8689C8.42702 16.1436 8.39802 16.1968 8.14902 16.3295C7.73702 16.5423 7.46902 16.9854 7.46902 17.4548C7.46902 18.0838 10.3335 44.4107 10.4385 44.7742C10.496 44.9514 10.6495 45.2261 10.7835 45.3681C11.186 45.8111 11.502 45.8555 13.2455 45.696C20.622 45.0314 29.5885 45.0314 36.735 45.696C37.53 45.7667 38.306 45.8111 38.4785 45.7755C38.9 45.7048 39.4175 45.2261 39.5515 44.8006C39.657 44.4375 42.531 18.0394 42.531 17.4104C42.531 16.9942 42.2435 16.533 41.8605 16.3291C41.64 16.2139 41.573 16.1163 41.573 15.9124C41.573 15.7616 41.7935 13.7238 42.052 11.3752C42.32 9.01834 42.531 6.96253 42.531 6.79418C42.531 6.62583 42.4545 6.40429 42.3585 6.29792C42.1955 6.112 42.0135 6.07638 40.222 5.90803L38.2675 5.72211L38.2195 4.31334C38.1715 2.97532 38.162 2.90456 37.9415 2.745C37.731 2.58543 37.539 2.57665 35.1635 2.57665C33.3145 2.58543 32.577 2.61226 32.462 2.69181C32.2415 2.84258 32.0885 3.15246 32.0885 3.40961V3.63993H30.6515H29.215L29.2055 2.9929C29.2055 2.64741 29.167 2.00037 29.1385 1.57487C29.081 0.892681 29.0425 0.759483 28.8415 0.617958C28.5925 0.431572 28.372 0.422783 25.7665 0.537945ZM27.596 1.88521C27.6345 1.97401 27.941 9.63023 27.912 9.65659C27.8545 9.70978 24.9805 10.0289 24.9325 9.98451C24.8845 9.94011 24.5495 2.09796 24.597 2.04477C24.616 2.01841 25.2005 1.97401 25.8905 1.94718C26.59 1.92082 27.251 1.894 27.3755 1.88521C27.4905 1.87642 27.5865 1.87642 27.596 1.88521ZM22.4805 4.0474L23.0745 4.0918L23.1225 4.55244C23.2565 5.80212 23.247 7.93748 23.094 10.5252C23.008 12.0935 22.912 13.3964 22.883 13.4227C22.864 13.4491 22.519 13.4227 22.126 13.3783C21.7335 13.3251 21.2445 13.2988 21.053 13.3251L20.689 13.3695L20.6985 12.9621C20.6985 12.7318 20.756 11.1102 20.823 9.35551C20.89 7.54806 20.8995 6.06806 20.8615 5.93486C20.8135 5.81091 20.6605 5.65135 20.526 5.58059C20.296 5.46542 20.2865 5.42981 20.344 4.93354C20.373 4.65003 20.4015 4.30408 20.4015 4.17134V3.93223L21.1485 3.96785C21.5515 3.98542 22.155 4.02057 22.4805 4.0474ZM36.6875 10.0465V16.0988L36.352 16.2139C36.17 16.2759 35.8825 16.4267 35.7295 16.5506L35.442 16.7722V16.4711C35.442 16.3115 35.5285 15.4785 35.624 14.628C35.739 13.6887 35.777 13.0065 35.72 12.8913C35.5955 12.5634 35.26 12.4307 34.417 12.3687L33.622 12.3067V8.1507V3.99467H35.155H36.688V10.0465H36.6875ZM14.654 5.47374C14.74 6.04077 14.7595 6.91813 14.7115 8.90318C14.635 12.0399 14.6155 12.1994 14.338 12.2706C14.223 12.297 14.127 12.3058 14.1175 12.297C14.108 12.2882 13.964 11.2693 13.811 10.0284C13.466 7.35242 13.485 7.38757 12.4985 7.43197C12.1535 7.44076 11.876 7.42318 11.876 7.39636C11.876 7.36074 11.79 6.85569 11.6845 6.2711C11.5695 5.6865 11.512 5.18977 11.541 5.16341C11.5985 5.11022 13.917 4.72912 14.281 4.71154C14.5195 4.70276 14.5295 4.72958 14.654 5.47374ZM32.089 8.60209C32.089 10.5515 32.0605 12.1467 32.022 12.1467C31.974 12.1467 31.5815 12.1115 31.1405 12.0579C30.4985 11.9959 30.288 11.9959 30.077 12.1023L29.8185 12.2262L29.7515 11.8539C29.675 11.4109 29.512 7.57396 29.5025 6.09396V5.05703H30.7955H32.089V8.60209ZM19.233 6.90935C19.3385 6.97132 19.348 7.42318 19.3 9.40823C19.233 11.4904 19.1085 13.1832 19.07 12.3946C19.07 12.2619 18.955 12.0491 18.8305 11.9164L18.61 11.6685L17.7095 11.7748C17.2115 11.8368 16.6555 11.9076 16.4735 11.9344L16.138 11.9876L16.1955 10.3573C16.234 9.47113 16.2625 8.31026 16.272 7.77885L16.2815 6.83072H17.7C18.476 6.8298 19.166 6.86494 19.233 6.90935ZM39.8105 7.29044L40.9025 7.39682L40.893 7.70716C40.893 7.8843 40.692 9.84252 40.443 12.0579L39.993 16.09L39.102 16.1168L38.2205 16.1436V11.6597V7.18453H38.4695C38.613 7.18407 39.2165 7.22847 39.8105 7.29044ZM12.115 8.97395C12.1535 9.08911 13.025 15.8416 13.025 16.0363C13.025 16.1071 12.5555 16.1339 11.502 16.1339H9.97903L9.92153 15.7972C9.75853 14.8135 9.08802 9.28428 9.12652 9.25746C9.15552 9.23063 9.78752 9.14229 10.5445 9.05349C11.3015 8.96469 11.9625 8.88514 12.0005 8.87636C12.0385 8.87682 12.096 8.92076 12.115 8.97395ZM28.1615 11.2425C28.1615 11.3845 29.637 23.0279 29.7325 23.6306C29.7705 23.9053 29.7705 23.9141 29.062 24.1088C28.401 24.2859 26.8105 24.5787 26.7725 24.5343C26.763 24.5167 26.5905 23.1963 26.38 21.5923L26.016 18.6679L26.2745 16.497C26.543 14.3524 26.543 14.326 26.361 14.1045C26.2555 13.9717 26.0255 13.8473 25.8055 13.7941C25.6045 13.7497 25.4225 13.7053 25.403 13.6965C25.355 13.6614 25.087 11.508 25.125 11.4636C25.1635 11.4372 27.357 11.1532 28.047 11.0913C28.104 11.0922 28.1615 11.1542 28.1615 11.2425ZM18.524 17.9862C19.3285 22.5233 19.434 23.4002 19.1755 23.4002C19.0605 23.4002 18.0835 22.78 17.566 22.3726C17.298 22.1686 16.905 21.7875 16.694 21.5216C15.9085 20.5822 15.851 20.4139 15.2285 16.9313C14.9125 15.159 14.6635 13.697 14.6825 13.679C14.721 13.6526 17.269 13.2359 17.5275 13.2183C17.6525 13.21 17.825 14.0693 18.524 17.9862ZM32.98 13.6618L34.206 13.7682L34.158 14.0873C34.1295 14.2645 33.928 16.0192 33.708 17.995L33.315 21.584L32.8745 22.0183C32.405 22.4702 31.3225 23.2499 31.2555 23.188C31.2365 23.1704 31.0735 22.0715 30.901 20.7423L30.5945 18.3322L30.853 16.0192C31.0065 14.7432 31.1215 13.6443 31.1215 13.5735C31.131 13.494 31.2175 13.4671 31.447 13.5115C31.61 13.5379 32.3095 13.6087 32.98 13.6618ZM23.4195 14.9467C24.157 15.0262 24.7895 15.1238 24.828 15.1506C24.8665 15.1775 24.6365 17.2952 24.33 19.8561C24.014 22.417 23.755 24.526 23.755 24.5435C23.755 24.6055 22.5385 24.446 21.7145 24.2688C21.197 24.1624 20.8425 24.0385 20.814 23.9585C20.7855 23.8877 21.0055 21.8319 21.3025 19.3862C21.5995 16.9405 21.839 14.9111 21.839 14.8671C21.8385 14.7783 21.896 14.7871 23.4195 14.9467ZM13.2935 17.6583C13.351 17.7203 13.5715 18.3317 13.7915 19.0139C14.0115 19.6961 14.4045 20.6622 14.6635 21.1585C15.0465 21.9027 15.267 22.1954 15.957 22.8688C17.6045 24.464 19.693 25.4385 22.3565 25.8376C26.3985 26.4486 30.47 25.6688 33.0375 23.7901C34.6085 22.6468 35.423 21.4152 36.2085 19.0139L36.6685 17.5959L38.8335 17.5695C40.0215 17.5607 40.9985 17.5783 40.9985 17.6051C40.9985 17.7647 38.1055 44.3575 38.086 44.3751C38.0765 44.3927 37.703 44.3575 37.2525 44.3131C33.612 43.932 28.439 43.7461 23.2755 43.8081C18.984 43.8612 17.1445 43.9408 13.8395 44.2243C12.7855 44.3131 11.914 44.3751 11.9045 44.3658C11.8855 44.3483 9.00202 17.8174 9.00202 17.6578C9.00202 17.4983 13.15 17.5075 13.2935 17.6583Z" fill="white"/>
</svg>
