<svg width="50" height="50" viewBox="0 0 50 50" fill="none" xmlns="http://www.w3.org/2000/svg">
<path d="M22.163 4.8913C13.5865 5.7948 6.72547 8.7503 3.14197 13.0693C1.99347 14.4478 0.997965 16.4998 0.706965 18.1233C0.277965 20.4203 0.599965 21.8908 1.80947 23.1158L2.36097 23.6673L1.79447 24.1418C0.722465 25.0148 0.201465 26.7608 0.706965 27.7563C1.02847 28.3538 1.91697 29.1043 2.46797 29.2268C2.88147 29.3188 2.94297 29.3953 2.94297 29.8088C2.94297 30.4213 3.43297 31.2483 3.93847 31.4783C4.41347 31.6928 4.41347 31.8153 3.93847 32.0298C3.14197 32.3973 2.92747 33.0253 2.95847 34.9548L2.97397 36.6853L2.39197 36.9608C1.65697 37.2823 0.890965 38.1248 0.645965 38.8903C0.00246516 40.8198 1.56447 43.6833 3.83097 44.7403L4.70396 45.1538H24.996H45.288L46.161 44.7403C48.428 43.6833 49.99 40.8198 49.347 38.8898C49.102 38.1243 48.3365 37.2818 47.601 36.9603L47.019 36.6848L47.0345 34.9543C47.065 33.0248 46.8505 32.3968 46.0545 32.0293C45.58 31.8148 45.58 31.6923 46.0545 31.4778C46.56 31.2483 47.05 30.4208 47.05 29.8083C47.05 29.3948 47.1115 29.3183 47.5245 29.2263C48.535 28.9968 49.5 27.7563 49.5 26.6688C49.5 25.9183 48.8565 24.6778 48.198 24.1418L47.6315 23.6673L48.183 23.1158C49.393 21.8908 49.7295 20.3898 49.2855 18.1078C48.964 16.4693 47.9685 14.4018 46.835 13.0388C43.665 9.2098 37.5085 6.3003 30.2035 5.1823C28.6565 4.9523 23.4495 4.7533 22.163 4.8913ZM30.188 6.4073C36.13 7.2648 41.5055 9.5163 44.6605 12.4718C46.4985 14.1868 47.5395 15.9178 48.03 18.0768C48.5965 20.6188 48.122 22.1503 46.5135 22.8858C45.9315 23.1613 44.9975 23.1768 24.996 23.1768C5.04097 23.1768 4.06047 23.1613 3.47847 22.8858C2.16147 22.2883 1.62547 21.1858 1.76297 19.3173C1.96197 16.8978 2.92696 14.9528 4.93296 12.9003C8.56246 9.2248 14.3055 6.9583 22.162 6.1158C23.4495 5.9783 28.5185 6.1623 30.188 6.4073ZM47.0345 24.7853C47.7695 25.2143 48.137 25.7808 48.229 26.5923C48.3055 27.1898 48.2595 27.3428 47.9225 27.6798C47.325 28.2773 46.6665 28.2158 46.0695 27.5113C44.6605 25.8263 44.0175 25.4743 42.838 25.6888C42.317 25.7958 41.812 26.2098 40.648 27.5113C39.959 28.2923 39.377 28.2923 38.7185 27.5113C37.3095 25.8263 36.6665 25.4743 35.487 25.6888C34.966 25.7958 34.461 26.2098 33.297 27.5113C32.608 28.2923 32.0255 28.2923 31.367 27.5113C29.958 25.8263 29.315 25.4743 28.136 25.6888C27.615 25.7958 27.11 26.2098 25.946 27.5113C25.2565 28.2923 24.6745 28.2923 24.016 27.5113C22.607 25.8263 21.964 25.4743 20.7845 25.6888C20.264 25.7958 19.7585 26.2098 18.5945 27.5113C17.9055 28.2923 17.3235 28.2923 16.665 27.5113C15.256 25.8263 14.613 25.4743 13.4335 25.6888C12.913 25.7958 12.4075 26.2098 11.2435 27.5113C10.5545 28.2923 9.97247 28.2923 9.31396 27.5113C7.90497 25.8263 7.26147 25.4743 6.08246 25.6888C5.56196 25.7958 5.05647 26.2098 3.89246 27.5113C3.27996 28.2003 2.66747 28.2618 2.10047 27.6948C1.50347 27.1128 1.67197 25.8113 2.45297 25.1223C3.26447 24.3873 2.59097 24.4178 25.226 24.4483C46.2075 24.4788 46.5135 24.4788 47.0345 24.7853ZM7.59846 27.4193C9.00746 29.1038 9.65047 29.4563 10.83 29.2418C11.366 29.1343 11.994 28.5983 12.9895 27.4193C13.648 26.6383 14.2915 26.6383 14.95 27.4193C16.359 29.1038 17.002 29.4563 18.1815 29.2418C18.7175 29.1343 19.3455 28.5983 20.341 27.4193C20.7085 26.9753 20.923 26.8528 21.321 26.8528C21.719 26.8528 21.9335 26.9753 22.301 27.4193C23.71 29.1038 24.353 29.4563 25.5325 29.2418C26.0685 29.1343 26.6965 28.5983 27.692 27.4193C28.3505 26.6383 28.994 26.6383 29.6525 27.4193C31.0615 29.1038 31.7045 29.4563 32.884 29.2418C33.42 29.1343 34.048 28.5983 35.0435 27.4193C35.702 26.6383 36.345 26.6383 37.004 27.4193C37.9995 28.5983 38.6275 29.1343 39.1635 29.2418C40.3425 29.4563 40.986 29.1043 42.395 27.4193C43.0535 26.6383 43.697 26.6383 44.3555 27.4193C44.6155 27.7258 45.06 28.2158 45.3355 28.5068C45.703 28.9048 45.8255 29.1653 45.8255 29.5943C45.8255 29.9008 45.749 30.2378 45.6415 30.3448C45.381 30.6053 4.61296 30.6053 4.35296 30.3448C4.24596 30.2378 4.16896 29.9008 4.16896 29.5943C4.16896 29.1653 4.29147 28.9053 4.67447 28.5068C4.93497 28.2158 5.37896 27.7258 5.63946 27.4193C6.29697 26.6383 6.93996 26.6383 7.59846 27.4193ZM19.8965 35.2298L16.42 38.7218L12.9435 35.2298L9.45197 31.7533H16.42H23.388L19.8965 35.2298ZM37.049 35.2298L33.5725 38.7213L30.096 35.2298L26.6045 31.7533H33.573H40.541L37.049 35.2298ZM10.524 34.8163L12.362 36.6543H8.44146C5.60847 36.6543 4.49046 36.6083 4.35246 36.4703C4.10747 36.2253 4.10747 33.4073 4.35246 33.1623C4.47496 33.0398 5.19497 32.9783 6.61897 32.9783H8.68647L10.524 34.8163ZM27.6765 34.8163L29.514 36.6543H24.996H20.478L22.316 34.8163L24.154 32.9788H24.9965H25.839L27.6765 34.8163ZM45.6405 33.1623C45.8855 33.4073 45.8855 36.2253 45.6405 36.4703C45.503 36.6083 44.3845 36.6543 41.5515 36.6543H37.631L39.469 34.8163L41.3065 32.9788H43.374C44.7985 32.9788 45.518 33.0398 45.6405 33.1623ZM14.904 39.1808C15.624 39.9008 16.313 40.4828 16.42 40.4828C16.527 40.4828 17.2165 39.9008 17.936 39.1808L19.2685 37.8788H24.996H30.7235L32.056 39.1808C32.776 39.9008 33.465 40.4828 33.5725 40.4828C33.6795 40.4828 34.369 39.9008 35.0885 39.1808L36.421 37.8788H41.674C46.054 37.8788 46.988 37.9093 47.3555 38.1083C48.7185 38.8128 48.5345 41.1863 46.988 42.7178C45.625 44.0963 47.279 44.0043 24.996 44.0043C2.71297 44.0043 4.36697 44.0963 3.00397 42.7178C1.47247 41.2018 1.27347 38.8433 2.60597 38.1233C2.94297 37.9243 3.92296 37.8938 8.28796 37.8783H13.5715L14.904 39.1808Z" fill="white"/>
<path d="M22.9285 10.0829C22.6835 10.3124 22.5455 10.6344 22.5455 10.9254C22.5455 11.5074 23.143 12.1504 23.694 12.1504C24.245 12.1504 24.8425 11.5074 24.8425 10.9254C24.8425 10.3434 24.245 9.70039 23.694 9.70039C23.48 9.69989 23.128 9.86839 22.9285 10.0829Z" fill="white"/>
<path d="M36.406 11.3082C36.161 11.5377 36.023 11.8597 36.023 12.1507C36.023 12.7327 36.6205 13.3757 37.1715 13.3757C37.7225 13.3757 38.32 12.7322 38.32 12.1507C38.32 11.5687 37.7225 10.9257 37.1715 10.9257C36.957 10.9252 36.605 11.0937 36.406 11.3082Z" fill="white"/>
<path d="M10.677 13.7582C10.432 13.9877 10.294 14.3097 10.294 14.6007C10.294 15.1827 10.8915 15.8257 11.4425 15.8257C11.9935 15.8257 12.591 15.1822 12.591 14.6007C12.591 14.0192 11.9935 13.3757 11.4425 13.3757C11.2285 13.3752 10.876 13.5437 10.677 13.7582Z" fill="white"/>
<path d="M29.0549 13.7582C28.8099 13.9877 28.6719 14.3097 28.6719 14.6007C28.6719 15.1827 29.2689 15.8257 29.8204 15.8257C30.3719 15.8257 30.9689 15.1822 30.9689 14.6007C30.9689 14.0192 30.3714 13.3757 29.8204 13.3757C29.6059 13.3752 29.2539 13.5437 29.0549 13.7582Z" fill="white"/>
<path d="M18.0279 17.4337C17.7829 17.6632 17.6449 17.9852 17.6449 18.2762C17.6449 18.8582 18.2424 19.5012 18.7934 19.5012C19.3449 19.5012 19.9419 18.8577 19.9419 18.2762C19.9419 17.6947 19.3444 17.0512 18.7934 17.0512C18.5794 17.0512 18.2269 17.2197 18.0279 17.4337Z" fill="white"/>
<path d="M4.55093 18.6593C4.30593 18.8888 4.16793 19.2108 4.16793 19.5018C4.16793 20.0838 4.76543 20.7268 5.31643 20.7268C5.86793 20.7268 6.46493 20.0833 6.46493 19.5018C6.46493 18.9203 5.86743 18.2768 5.31643 18.2768C5.10243 18.2763 4.74993 18.4448 4.55093 18.6593Z" fill="white"/>
<path d="M42.5319 18.6593C42.2869 18.8888 42.1489 19.2108 42.1489 19.5018C42.1489 20.0838 42.7464 20.7268 43.2974 20.7268C43.8484 20.7268 44.4459 20.0833 44.4459 19.5018C44.4459 18.9203 43.8484 18.2768 43.2974 18.2768C43.0829 18.2763 42.7309 18.4448 42.5319 18.6593Z" fill="white"/>
</svg>
