<svg width="50" height="50" viewBox="0 0 50 50" fill="none" xmlns="http://www.w3.org/2000/svg">
<path d="M8.06341 24.9772H10.018C9.34344 24.2181 8.93256 23.2196 8.93256 22.1266C8.93256 19.7572 10.8602 17.8296 13.2296 17.8296H14.0516C13.2354 16.9821 12.7319 15.8313 12.7319 14.5645V13.8732C12.732 8.42909 17.1611 4 22.6052 4H24.7523C25.1517 4 25.4756 4.32383 25.4756 4.72323C25.4756 5.12264 25.1517 5.44647 24.7523 5.44647H23.6599C22.1545 5.44647 20.9297 6.67127 20.9297 8.17668C20.9297 9.68209 22.1545 10.9069 23.6599 10.9069H28.1343C30.4375 10.9069 32.3111 12.7806 32.3111 15.0836C32.3111 16.1342 31.9203 17.0947 31.2776 17.8295H31.8134C31.9 17.8295 31.9858 17.8329 32.0712 17.8379L37.786 7.54376C37.7879 7.54023 37.7899 7.53671 37.7919 7.53318C38.2118 6.80588 38.8897 6.2856 39.7009 6.06827C40.5121 5.85094 41.3593 5.9625 42.0866 6.38243C42.8139 6.80235 43.3342 7.4803 43.5515 8.29149C43.7689 9.1026 43.6573 9.94987 43.2416 10.6698L35.2025 24.9773H36.9795C37.3789 24.9773 37.7027 25.3012 37.7027 25.7006V31.7523C37.7027 32.1517 37.3789 32.4756 36.9795 32.4756H35.1921V46.2768C35.1921 46.6762 34.8683 47 34.4689 47H10.574C10.1746 47 9.8508 46.6762 9.8508 46.2768V32.4755H8.06341C7.664 32.4755 7.34018 32.1516 7.34018 31.7522V25.7005C7.34018 25.3011 7.66409 24.9772 8.06341 24.9772ZM10.3791 22.1267C10.3791 23.6986 11.6579 24.9772 13.2297 24.9772H24.5758C24.9753 24.9772 25.2991 25.3011 25.2991 25.7005V33.5477C25.2991 34.4251 26.0129 35.139 26.8903 35.139C27.7676 35.139 28.4814 34.4251 28.4814 33.5477V25.7005C28.4814 25.3011 28.8052 24.9772 29.2046 24.9772H29.2047H31.8135C33.3854 24.9772 34.6641 23.6984 34.6641 22.1266C34.6641 20.5548 33.3853 19.2761 31.8135 19.2761H17.4448H17.4437H13.2297C11.6578 19.2761 10.3791 20.5548 10.3791 22.1267ZM28.1343 17.8139C29.6398 17.8139 30.8646 16.5891 30.8646 15.0837C30.8646 13.5782 29.6398 12.3534 28.1343 12.3534H23.6599C21.3568 12.3534 19.4832 10.4797 19.4832 8.17677C19.4832 7.288 19.7624 6.46298 20.2374 5.78512C16.7398 6.81058 14.1784 10.0483 14.1784 13.8733V14.5646C14.1784 16.3646 15.6428 17.8291 17.4425 17.8297L28.1343 17.8139ZM42.1543 8.66577C42.037 8.22776 41.7561 7.86171 41.3634 7.63507C40.9707 7.40851 40.5131 7.34812 40.0753 7.46547C39.6391 7.58236 39.2743 7.86144 39.0474 8.25162L33.5308 18.1887C34.6451 18.6766 35.5136 19.6236 35.8964 20.7894L41.9847 9.95385C42.2115 9.56122 42.2717 9.10378 42.1543 8.66577ZM36.2564 26.4237H33.9673C33.9669 26.4237 33.9664 26.4238 33.966 26.4238C33.9655 26.4238 33.9651 26.4237 33.9645 26.4237H31.8134H29.9278V31.029H36.2564V26.4237ZM8.78664 31.029H13.004C13.4034 31.029 13.7272 31.3528 13.7272 31.7522C13.7272 32.1516 13.4034 32.4755 13.004 32.4755H11.2973V45.5534H33.7457V32.4755H29.9278V33.5477C29.9278 35.2226 28.5652 36.5853 26.8902 36.5853C25.2152 36.5853 23.8525 35.2227 23.8525 33.5477V32.4755H17.6327C17.2333 32.4755 16.9095 32.1516 16.9095 31.7522C16.9095 31.3528 17.2333 31.029 17.6327 31.029H23.8525V26.4237H13.2297H8.78664V31.029Z" fill="black"/>
</svg>
