<svg width="50" height="50" viewBox="0 0 50 50" fill="none" xmlns="http://www.w3.org/2000/svg">
<g clip-path="url(#clip0_1_181)">
<path d="M27.5277 49.4425C37.8072 48.402 46.3047 40.955 48.7972 30.7994C49.7347 26.9885 49.7347 22.7344 48.7972 19.0159C48.5192 17.9344 48.2512 17.5224 47.7982 17.5224C47.6747 17.5224 44.8832 18.4904 41.5977 19.6854C38.3017 20.8699 32.9972 22.7959 29.7937 23.9499C26.5902 25.1035 23.9637 26.0404 23.9432 26.02C23.9327 26.0095 25.2412 22.3225 26.8582 17.8209C28.4857 13.32 30.3912 8.02545 31.1017 6.04795C31.8122 4.07045 32.3997 2.30895 32.3892 2.14445C32.3787 1.67045 32.0907 1.47495 31.0297 1.20695C25.3647 -0.224551 19.4007 0.423951 14.0862 3.05095C7.74116 6.18245 3.15765 11.6825 1.31415 18.388C0.634153 20.8805 0.500154 22.003 0.500155 24.9385C0.500155 27.8845 0.654654 29.1925 1.31415 31.5925C4.25965 42.3045 13.9832 49.628 25.1587 49.535C25.9827 49.535 27.0437 49.4834 27.5277 49.4425ZM22.1097 47.753C16.8977 47.063 12.2937 44.7555 8.61666 40.986C5.04266 37.3295 2.91016 32.9625 2.23065 27.9255C2.04515 26.494 2.04516 23.5995 2.24116 22.1165C2.97265 16.544 5.94916 11.085 10.2137 7.52145C13.3347 4.90495 16.8777 3.22645 20.8847 2.47445C22.3062 2.20645 25.6637 2.09345 27.2912 2.26845C28.3622 2.38145 30.2782 2.73195 30.3812 2.83495C30.4122 2.86595 29.3407 5.98695 29.2377 6.16195C29.2272 6.17245 28.6917 6.08995 28.0427 5.97645C26.5287 5.70845 23.8402 5.68795 22.2747 5.92495C14.8792 7.05795 8.93615 12.0125 6.65965 18.934C6.06215 20.7365 5.79466 22.261 5.72216 24.218C5.39266 33.2305 11.0372 41.0895 19.5862 43.5205C22.9852 44.4885 26.3737 44.54 29.7727 43.6855C37.3332 41.779 42.9467 35.424 44.0487 27.524C44.2652 26.0099 44.2547 23.6614 44.0382 22.2709C43.7702 20.5404 43.6262 20.7774 45.3877 20.1389C46.2322 19.8299 46.9737 19.5824 47.0462 19.5824C47.1902 19.5824 47.2727 19.9019 47.5922 21.5909C47.8397 22.9404 47.8397 27.3694 47.5817 28.7495C46.6652 33.6624 44.6047 37.6795 41.3192 40.9965C37.5802 44.7665 32.6257 47.2075 27.5272 47.7945C26.2197 47.9385 23.4077 47.918 22.1097 47.753ZM22.6147 42.5C15.1577 41.439 9.23515 35.877 7.62815 28.4405C7.43265 27.5135 7.40166 27.0395 7.39116 25.1445C7.39116 23.198 7.42215 22.786 7.63815 21.7455C9.20365 14.1955 15.0027 8.65395 22.4807 7.57245C24.5097 7.28395 28.6712 7.53145 28.5782 7.94345C28.5577 8.02595 27.0127 12.3415 25.1382 17.5225C23.2637 22.7035 21.7082 27.1425 21.6772 27.39C21.6462 27.7505 21.6772 27.8845 21.8732 28.0905C22.0072 28.2345 22.2232 28.3375 22.3982 28.3375C22.5527 28.3375 27.0537 26.7614 32.3892 24.8355C39.3622 22.3119 42.1127 21.3645 42.1642 21.4569C42.5352 22.0439 42.6377 26.4629 42.3287 28.0799C41.4942 32.3749 39.4757 35.8255 36.2102 38.5239C33.5632 40.728 30.0407 42.2215 26.7032 42.582C25.7872 42.6855 23.5622 42.634 22.6147 42.5Z" fill="white"/>
<path d="M29.4332 40.9346C31.0812 40.3371 32.0287 39.2041 32.2967 37.5046C32.5027 36.1246 32.0082 34.5586 31.0712 33.6936C30.8137 33.4566 30.2987 33.1166 29.9177 32.9416C29.2687 32.6326 29.1552 32.6121 28.0327 32.6121C26.8687 32.6121 26.8377 32.6226 26.0652 33.0036C24.7882 33.6321 24.0567 34.6516 23.8092 36.1351C23.5002 38.0406 24.3862 39.8431 26.0547 40.6671C26.7862 41.0276 26.9197 41.0586 27.8777 41.0891C28.6712 41.1096 29.0417 41.0686 29.4332 40.9346ZM26.9507 39.2761C26.4562 39.0186 25.7147 38.2356 25.5087 37.7621C25.4262 37.5666 25.3647 37.1546 25.3647 36.8351C25.3647 36.1141 25.5397 35.6816 26.0962 35.0841C26.9612 34.1466 28.0017 33.8791 28.9907 34.3321C31.2982 35.3931 31.3187 38.2256 29.0322 39.3276C28.4032 39.6266 27.5997 39.6061 26.9507 39.2761Z" fill="white"/>
<path d="M19.7817 36.8865C20.2967 36.4025 20.4717 35.877 20.4717 34.775C20.4717 33.8275 20.4512 33.704 20.1732 33.2095C19.7717 32.478 19.5552 32.303 19.0607 32.303C18.2572 32.303 17.9897 33.127 18.5562 33.8375C19.0712 34.4865 19.0812 34.9395 18.6077 35.6505C18.2882 36.114 18.2882 36.5155 18.6182 36.835C18.9272 37.1545 19.4627 37.175 19.7817 36.8865Z" fill="white"/>
<path d="M35.8394 33.2919C36.4984 32.9829 37.1989 32.2824 37.5284 31.5819C38.0844 30.4079 37.8374 29.3674 37.0029 29.3674C36.6014 29.3674 36.1789 29.7689 36.1789 30.1604C36.1789 30.6344 35.9834 31.1699 35.7464 31.4069C35.6124 31.5204 35.2519 31.7059 34.9429 31.8089C34.3144 32.0149 34.0469 32.3649 34.1599 32.8284C34.3254 33.4774 35.0054 33.6624 35.8394 33.2919Z" fill="white"/>
<path d="M15.4252 32.3235C16.7642 31.9835 17.6502 31.283 18.2267 30.109C18.6077 29.3365 18.6182 29.3055 18.6182 28.1315C18.6182 26.9575 18.6077 26.9265 18.2267 26.154C17.4027 24.475 15.6412 23.5895 13.7257 23.8775C11.5007 24.2275 10.1207 25.855 10.1207 28.121C10.1207 30.016 11.1097 31.5305 12.7577 32.1485C13.4887 32.4165 14.7347 32.499 15.4252 32.3235ZM13.3652 30.6035C12.4277 30.1505 11.6657 29.038 11.6657 28.1315C11.6657 27.215 12.4487 26.0715 13.3652 25.649C13.8597 25.4225 14.8277 25.3915 15.3222 25.5975C15.7962 25.8035 16.5787 26.545 16.8467 27.05C17.1452 27.6165 17.1452 28.6465 16.8467 29.213C16.5892 29.7075 15.8062 30.4595 15.3427 30.655C14.8482 30.8715 13.8697 30.851 13.3652 30.6035Z" fill="white"/>
<path d="M13.0662 21.21C13.5297 20.654 13.6637 20.2315 13.6637 19.2735C13.6742 18.2745 13.4267 17.5535 12.8912 17.0485C12.3042 16.492 11.4182 16.791 11.4182 17.543C11.4182 17.7595 11.5417 18.0475 11.7477 18.336C12.1702 18.913 12.1907 19.4895 11.8197 20.0355C11.3152 20.777 11.6137 21.5395 12.4067 21.5395C12.7057 21.5395 12.8397 21.4675 13.0662 21.21Z" fill="white"/>
<path d="M20.4515 19.8809C21.4915 19.6334 22.4185 18.9644 23.016 18.0374C23.9015 16.6574 23.8195 14.4014 22.841 13.0729C21.1005 10.7039 17.1245 10.8994 15.6515 13.4129C14.704 15.0194 14.9305 17.3064 16.1665 18.6659C17.1245 19.7164 18.9475 20.2414 20.4515 19.8809ZM18.2675 18.1404C17.4745 17.7389 16.7845 16.8219 16.6505 15.9979C16.434 14.6074 17.876 12.9904 19.3285 12.9904C20.7085 12.9904 22.058 14.3399 22.0685 15.6994C22.0685 16.8119 21.265 17.8519 20.0395 18.3054C19.5655 18.4804 18.793 18.4084 18.2675 18.1404Z" fill="white"/>
<path d="M38.5485 18.975C44.018 17.018 48.6325 15.3495 48.8075 15.277C49.23 15.102 49.405 14.752 49.3225 14.2985C49.209 13.7215 47.8905 11.167 47.015 9.84896C44.4915 6.04846 40.6805 2.79346 36.6735 1.03196C35.582 0.557958 35.1285 0.527458 34.83 0.939458C34.686 1.14546 27.7745 20.283 27.424 21.4675C27.3105 21.8175 27.4755 22.333 27.733 22.4665C27.836 22.5285 28.083 22.5695 28.2685 22.5595C28.4545 22.549 33.079 20.942 38.5485 18.975ZM29.6905 20.2415C29.6905 20.0045 34.5005 6.77946 34.5935 6.73796C34.6655 6.70696 35.129 6.88196 35.634 7.11896C38.734 8.57096 41.196 10.961 42.6485 13.9375C43.421 15.503 43.421 15.39 42.5455 15.709C39.1875 16.9245 29.825 20.282 29.763 20.2925C29.7215 20.3035 29.6905 20.2725 29.6905 20.2415ZM44.543 13.9175C42.895 10.2095 39.5475 6.88246 35.9835 5.40946C35.6125 5.25496 35.2625 5.08996 35.211 5.04896C35.1285 4.97696 35.2625 4.54446 35.8805 2.81396C35.973 2.58746 35.973 2.58746 36.921 3.06096C41.031 5.12096 44.7695 8.82896 46.8505 12.918C47.1285 13.464 47.324 13.9375 47.283 13.9685C47.1905 14.061 45.1095 14.8335 45.0065 14.813C44.9655 14.8035 44.749 14.4015 44.543 13.9175Z" fill="white"/>
<path d="M35.9118 14.7005C36.1488 14.453 36.4368 14.196 36.5608 14.134C36.8493 13.99 37.3643 13.99 37.6423 14.134C37.7558 14.196 38.0133 14.2475 38.2088 14.2475C39.1463 14.2475 39.3418 13.0425 38.4768 12.6305C37.5808 12.198 36.2623 12.3625 35.2943 13.0115C34.3673 13.64 34.0788 14.402 34.5838 14.8965C34.9848 15.308 35.4073 15.246 35.9118 14.7005Z" fill="white"/>
</g>
<defs>
<clipPath id="clip0_1_181">
<rect width="50" height="50" fill="white" transform="translate(50 50) rotate(180)"/>
</clipPath>
</defs>
</svg>
