<svg width="25" height="25" viewBox="0 0 25 25" fill="none" xmlns="http://www.w3.org/2000/svg">
<path d="M24.525 23.4425L18.61 17.525C22.16 13.42 21.985 7.205 18.0875 3.31C16.0475 1.27 13.3725 0.25 10.6975 0.25C8.025 0.25 5.35 1.27 3.31 3.31C-0.77 7.39 -0.77 14.01 3.31 18.0875C5.35 20.1275 8.0225 21.1475 10.6975 21.1475C13.1325 21.1475 15.5675 20.3 17.525 18.61L23.4425 24.525C23.5925 24.675 23.7875 24.75 23.985 24.75C24.18 24.75 24.3775 24.675 24.5275 24.525C24.825 24.2275 24.825 23.7425 24.525 23.4425ZM14.055 18.9625C12.9875 19.395 11.8575 19.615 10.6975 19.615C9.5375 19.615 8.41 19.395 7.34 18.9625C6.235 18.515 5.2425 17.855 4.3925 17.005C3.54 16.1525 2.8825 15.1625 2.435 14.0575C2.0025 12.9875 1.7825 11.8575 1.7825 10.7C1.7825 9.54 2.0025 8.4125 2.435 7.3425C2.8825 6.2375 3.5425 5.245 4.3925 4.3925C5.245 3.5425 6.235 2.8825 7.34 2.435C8.4075 2.0025 9.5375 1.7825 10.695 1.7825C11.855 1.7825 12.9825 2.0025 14.0525 2.435C15.1575 2.8825 16.15 3.5425 17.0025 4.3925C17.8525 5.2425 18.5125 6.235 18.96 7.34C19.3925 8.4075 19.6125 9.5375 19.6125 10.6975C19.6125 11.8575 19.3925 12.985 18.96 14.055C18.5125 15.16 17.8525 16.1525 17.0025 17.005C16.1525 17.855 15.16 18.515 14.055 18.9625Z" fill="white"/>
</svg>
