<svg width="30" height="30" viewBox="0 0 30 30" fill="none" xmlns="http://www.w3.org/2000/svg">
<path d="M16.8538 14.9999L29.3068 2.54693C29.8288 2.02493 29.8288 1.17593 29.3068 0.650927C28.7848 0.125927 27.9358 0.128927 27.4108 0.650927L14.9578 13.1039L2.58877 0.734927C2.06377 0.209927 1.21477 0.209927 0.692769 0.734927C0.17077 1.25993 0.17077 2.10593 0.692769 2.63093L13.0618 14.9999L0.692769 27.3689C0.17077 27.8909 0.17077 28.7399 0.692769 29.2649C1.21477 29.7899 2.06377 29.7869 2.58877 29.2649L14.9578 16.8959L27.4108 29.3489C27.9328 29.8709 28.7818 29.8709 29.3068 29.3489C29.8318 28.8269 29.8288 27.9779 29.3068 27.4529L16.8538 14.9999Z" fill="white"/>
</svg>
