<svg width="50" height="35" viewBox="0 0 50 35" fill="none" xmlns="http://www.w3.org/2000/svg">
<path d="M20.1006 1.56022C19.5506 2.06597 19.5845 2.94184 20.1693 3.39684C20.5479 3.68297 20.8747 3.75034 21.889 3.75034H23.1613V5.41809V7.08584L21.7854 7.27134C12.0015 8.68797 4.29879 16.6583 3.78272 25.9088C3.697 27.6781 3.697 27.7796 4.07468 28.099C4.45325 28.4358 4.72825 28.4358 23.9684 28.4866C36.8809 28.5032 43.6899 28.47 44.1372 28.3518C45.1175 28.099 45.272 27.5932 45.014 25.3865C44.1033 17.417 38.5318 10.6935 30.7604 8.13234C29.5738 7.74472 26.5818 7.12172 25.8774 7.12172C25.7916 7.12172 25.7399 6.36309 25.7399 5.45397V3.78622L27.1327 3.71884C28.3363 3.66809 28.5595 3.61822 28.8524 3.26384C29.2997 2.72484 29.2649 2.13509 28.7488 1.64597L28.3363 1.22509H24.3988C20.6845 1.22334 20.4613 1.24084 20.1006 1.56022ZM29.0925 10.1545C36.3488 12.1092 41.5586 17.9227 42.4872 25.1003L42.6077 25.9937H24.4327H6.25861L6.37915 24.8982C6.51665 23.5498 7.17022 21.2923 7.85772 19.8092C9.62915 15.9846 13.3256 12.5135 17.3149 10.9463C20.014 9.88497 21.3729 9.66534 24.88 9.71609C27.1497 9.76684 27.9925 9.85084 29.0925 10.1545Z" fill="black"/>
<path d="M1.61739 31.4021C0.826318 31.8571 0.912032 33.1714 1.77185 33.559C2.3906 33.8285 47.7147 33.8285 48.3335 33.559C49.2102 33.1714 49.279 31.8239 48.454 31.4021C47.9727 31.1492 2.04685 31.1492 1.61739 31.4021Z" fill="black"/>
</svg>
