<svg width="624" height="500" viewBox="0 0 624 500" fill="none" xmlns="http://www.w3.org/2000/svg">
<path fill-rule="evenodd" clip-rule="evenodd" d="M468.457 409.553C472.334 405.114 565.829 441.899 533.752 334.785C501.675 227.671 591.826 226.966 599.123 184.402C606.496 141.838 659.629 120.557 574.039 116.046C499.166 112.1 533.448 130.775 491.033 103.221C485.256 99.4861 460.02 142.755 451.202 134.439C380.283 68.127 399.97 65.4491 373.061 42.335C346.077 19.2209 374.43 -22.2153 299.405 20.5598C224.381 63.2646 302.234 71.5369 219 111C135.842 150.463 114.163 99.8255 71.1394 118.5C28.1923 137.175 6.52873 208.362 2.50006 248.953C-1.60462 289.614 33.2091 359.379 71.1394 387.919C109.07 416.389 169.272 457.191 210.47 483.758C251.669 510.325 348.623 494.016 373.061 483.758C397.5 473.5 468.457 409.553 468.457 409.553Z" stroke="#FF0000" stroke-width="2.53" stroke-linecap="square"/>
</svg>
