<svg width="50" height="50" viewBox="0 0 50 50" fill="none" xmlns="http://www.w3.org/2000/svg">
<path d="M21.2426 2.21994V3.93994H24.9776H28.7125V2.21994V0.499942H24.9776H21.2426V2.21994Z" fill="white"/>
<path d="M21.0555 5.965C19.532 6.6725 17.497 8.64849 16.711 10.2015L16.377 10.86V28.8485C16.377 46.05 16.387 46.866 16.554 47.367C16.8095 48.0945 17.537 48.8515 18.3135 49.215L18.9325 49.5H24.9775H31.0225L31.622 49.225C32.369 48.881 32.949 48.301 33.303 47.5345L33.578 46.945L33.6075 29.1045C33.637 8.9345 33.7155 10.8905 32.7915 9.4945C31.8575 8.089 30.226 6.595 28.958 5.995L28.368 5.71H24.977H21.586L21.0555 5.965ZM28.919 7.194C30.1675 8.0195 31.5535 9.435 32.1725 10.5065L32.4475 10.9685V17.23V23.501H24.997H17.5365L17.4675 17.4755C17.428 13.5635 17.438 11.342 17.507 11.116C17.8115 10.015 19.856 7.82299 21.262 7.0565L21.773 6.78149L25.076 6.811L28.3885 6.8405L28.919 7.194ZM32.448 43.111C32.448 47.023 32.438 47.1215 31.878 47.721C31.7305 47.878 31.4355 48.0845 31.2195 48.183C30.856 48.35 30.4625 48.37 24.9975 48.37C19.955 48.37 19.1195 48.3505 18.805 48.213C18.343 48.026 17.94 47.643 17.694 47.171C17.517 46.827 17.5075 46.552 17.5075 43.1605V39.5235H24.978H32.4485V43.111H32.448Z" fill="white"/>
</svg>
