<svg width="40" height="40" viewBox="0 0 40 40" fill="none" xmlns="http://www.w3.org/2000/svg">
<path d="M30.2528 39.6L30.0488 39.596C25.3128 39.356 18.9208 34.924 12.9408 27.748L10.7328 25.1C4.75684 17.916 1.62484 10.904 2.35684 6.34002C2.87284 3.12002 7.69284 0.400024 10.4448 0.400024C11.8008 0.400024 12.2928 1.07202 12.4648 1.47202C14.0248 4.22402 15.9528 9.01202 15.9608 10.728V10.848L15.9168 10.96C15.5728 11.864 14.8048 12.296 14.1248 12.676C13.2328 13.18 12.7248 13.508 12.6608 14.456C12.6408 14.744 12.8928 16.052 16.8368 20.884L18.5248 22.908C22.4808 27.548 23.7248 28.048 24.0128 28.088C24.9648 28.22 25.4168 27.804 26.1008 27.056C26.6248 26.488 27.2168 25.84 28.1928 25.7L28.3168 25.684L28.4368 25.708C30.1568 26.068 34.5688 28.892 37.0688 30.988C37.4288 31.228 38.0608 31.932 37.5608 33.496C36.7808 35.96 33.3648 39.6 30.2528 39.6ZM10.4448 1.74002C8.25684 1.74002 4.10484 4.11602 3.71284 6.54802C3.19284 9.78802 5.04484 16.14 11.8008 24.252L14.0088 26.9C20.7648 35.016 26.7608 38.088 30.1208 38.26L30.2528 38.264C32.6568 38.264 35.6048 35.144 36.2528 33.112C36.3848 32.7 36.4488 32.204 36.2328 32.06C33.4848 29.76 29.6248 27.44 28.2768 27.06C27.8728 27.164 27.5688 27.48 27.1248 27.96C26.4368 28.708 25.5728 29.676 23.8168 29.424C23.0448 29.316 21.5168 28.576 17.1608 23.42L16.7208 22.896L16.7288 22.892L16.3888 22.484L16.3848 22.488L15.9528 21.968C11.6728 16.748 11.2408 15.136 11.2888 14.376C11.4008 12.664 12.5768 12.004 13.4368 11.52C14.0128 11.196 14.3928 10.968 14.5808 10.608C14.4768 9.24002 12.9408 5.08802 11.2288 2.05202C11.1008 1.76402 10.6408 1.74002 10.4448 1.74002Z" fill="#FF0000"/>
</svg>
