<svg width="50" height="50" viewBox="0 0 50 50" fill="none" xmlns="http://www.w3.org/2000/svg">
<path d="M32.5954 7.67536L21.1074 15.3274L16.4519 16.7524C13.8949 17.5334 11.7184 18.2164 11.6204 18.2654C11.5324 18.3239 11.3959 18.5194 11.3374 18.7044C11.2399 18.9974 11.2494 19.0949 11.4059 19.3679C11.7769 19.9829 11.7769 19.9829 15.2809 18.8994C15.7104 18.7724 16.0129 18.6944 15.9639 18.7434C15.9149 18.7924 15.1439 19.3094 14.2559 19.9049C13.3579 20.5004 12.6064 21.0564 12.5674 21.1444C12.4404 21.4959 12.5089 21.9449 12.7334 22.1499C13.2314 22.6184 13.3094 22.5794 17.7304 19.6319L21.8299 16.8989L35.0059 12.8874C49.1974 8.57336 48.6214 8.76886 48.6214 8.10486C48.6214 7.75336 48.1624 7.23636 47.8504 7.23636C47.6844 7.23636 28.9354 12.9069 27.3639 13.4339C27.1394 13.5119 26.9734 13.5414 26.9929 13.5024C27.0219 13.4634 31.0824 10.7304 36.0209 7.44136C42.8144 2.90286 45.0199 1.38986 45.1079 1.18486C45.3224 0.657856 44.9029 0.013855 44.3369 0.013855C44.1609 0.013855 40.4914 2.40486 32.5954 7.67536Z" fill="white"/>
<path d="M23.5865 22.6573C21.0295 23.3308 18.931 25.2828 18.043 27.8108C17.76 28.6013 17.7405 28.7673 17.7015 30.3093C17.6525 32.2518 17.77 32.8568 18.404 34.2233C19.9365 37.4733 23.489 39.3183 26.8565 38.6153C29.394 38.0783 31.668 36.1363 32.6055 33.6963C33.035 32.5933 33.1325 31.8323 33.074 30.1828C33.025 28.6113 32.869 27.9378 32.264 26.7473C31.278 24.7853 29.209 23.1458 27.0425 22.6188C26.1635 22.4038 24.475 22.4233 23.5865 22.6573ZM26.622 24.2678C28.7495 24.6778 30.4285 26.1613 31.1115 28.2498C31.3555 28.9818 31.385 29.1768 31.385 30.6118C31.385 32.0663 31.3655 32.2223 31.1115 32.9543C30.76 33.9693 30.321 34.6818 29.618 35.3553C28.9445 36.0093 28.408 36.3608 27.588 36.6633C25.8115 37.3368 23.6155 37.1218 22.0735 36.1168C20.9315 35.3848 20.0335 34.2038 19.6235 32.9058C19.3405 32.0178 19.2625 29.9193 19.477 28.9043C20.1705 25.6148 23.245 23.6238 26.622 24.2678Z" fill="white"/>
<path d="M24.2605 26.0539C23.216 26.4249 22.4355 27.0789 21.83 28.0744C20.3365 30.5634 21.254 33.7159 23.821 34.9454C24.4945 35.2674 24.641 35.2969 25.402 35.2969C26.163 35.2969 26.29 35.2679 26.9735 34.9359C28.5545 34.1454 29.687 32.3494 29.687 30.6124C29.6775 28.8359 28.555 27.0109 26.993 26.2594C26.134 25.8489 25.051 25.7709 24.2605 26.0539ZM26.593 27.9084C27.4715 28.3769 27.93 29.2844 27.93 30.5434C27.93 30.9629 27.8615 31.5294 27.7835 31.8024C27.608 32.4074 26.9635 33.1589 26.417 33.4029C25.89 33.6469 24.8945 33.6469 24.3675 33.4029C22.074 32.3584 22.396 28.1224 24.8065 27.6444C25.4215 27.5179 26.0465 27.6154 26.593 27.9084Z" fill="white"/>
<path d="M35.5329 22.7065C34.9179 23.0285 34.3029 23.741 34.1274 24.346C33.9129 25.078 33.9129 36.146 34.1274 36.878C34.3129 37.5025 34.9084 38.186 35.5624 38.508L36.0699 38.762H41.7404H47.4109L47.9184 38.508C48.1919 38.3715 48.6014 38.059 48.8064 37.815C49.5284 37.005 49.5089 37.1905 49.4799 30.407C49.4509 24.424 49.4509 24.3655 49.2359 23.975C48.9824 23.487 48.2404 22.794 47.7914 22.599C47.5184 22.482 46.4639 22.4625 41.7204 22.4625L35.9814 22.4725L35.5329 22.7065ZM47.4894 24.3265L47.7434 24.5215V30.602C47.7434 36.663 47.7434 36.6825 47.5384 36.868C47.3434 37.044 47.0994 37.0535 41.7214 37.0535H36.1089L35.9234 36.819C35.7474 36.6045 35.7379 36.3505 35.7379 30.563V24.522L35.9914 24.327C36.2454 24.122 36.3329 24.122 41.7404 24.122C47.1479 24.122 47.2354 24.1215 47.4894 24.3265Z" fill="white"/>
<path d="M37.8074 25.1074C37.4364 25.2539 37.0754 25.5759 36.8409 25.9564C36.6164 26.3174 36.6164 26.3369 36.6164 30.5924C36.6164 35.2284 36.6069 35.1214 37.1729 35.6579C37.7489 36.2144 37.8559 36.2239 41.7404 36.2239C45.6249 36.2239 45.7324 36.2144 46.3084 35.6579C46.8744 35.1209 46.8649 35.2284 46.8649 30.5824V26.3074L46.5819 25.8584C46.3959 25.5659 46.1519 25.3514 45.8689 25.2049C45.4494 25.0099 45.3224 24.9999 41.7304 25.0099C39.6714 25.0099 37.9339 25.0489 37.8074 25.1074ZM45.2054 30.6119V34.4674H41.7404H38.2754V30.6119V26.7564H41.7404H45.2054V30.6119Z" fill="white"/>
<path d="M39.8765 28.2404C39.0665 29.0309 38.9685 29.4114 39.4375 29.8899C39.9155 30.3584 40.2965 30.2609 41.087 29.4509C41.624 28.9044 41.692 28.7874 41.692 28.4454C41.692 27.9379 41.3795 27.6354 40.872 27.6354C40.55 27.6354 40.4135 27.7134 39.8765 28.2404Z" fill="white"/>
<path d="M43.0095 29.4799C42.8535 29.5774 42.5115 29.8799 42.258 30.1534C41.8675 30.5729 41.7895 30.7194 41.7895 31.0319C41.7895 31.5394 42.141 31.8714 42.6385 31.8614C42.951 31.8514 43.0875 31.7539 43.6635 31.1684C44.4445 30.3679 44.5225 30.0559 44.044 29.5774C43.712 29.2454 43.4195 29.2164 43.0095 29.4799Z" fill="white"/>
<path d="M39.4374 31.3344C38.9589 31.8224 39.0959 32.2714 39.9839 33.0914C40.4229 33.4819 40.6084 33.5894 40.8624 33.5894C41.3504 33.5894 41.7114 33.2379 41.7114 32.7599C41.7114 32.4184 41.6429 32.3109 41.0284 31.7154C40.2279 30.9339 39.9154 30.8559 39.4374 31.3344Z" fill="white"/>
<path d="M7.56045 24.0629C7.03345 24.2289 6.58445 24.5214 6.19395 24.9219C5.87195 25.2539 1.14795 33.2279 0.718446 34.1649C0.386446 34.8869 0.435446 36.0094 0.845446 36.8389C1.15795 37.4634 1.82145 38.1369 2.46595 38.4884L2.89545 38.7129H8.65395H14.4124L14.9104 38.4494C15.5839 38.0979 16.3449 37.2394 16.6184 36.5364C16.8524 35.9119 16.9014 34.8089 16.7159 34.3304C16.4619 33.6864 11.3964 25.1854 11.0744 24.8534C10.5179 24.2779 9.78595 23.9949 8.79995 23.9554C8.28295 23.9359 7.81445 23.9749 7.56045 24.0629ZM9.21995 25.5269C9.39595 25.5949 9.64945 25.7804 9.78595 25.9369C9.92245 26.0929 11.2009 28.1914 12.6164 30.6119L15.1929 35.0039V35.6089C15.1929 36.1164 15.1539 36.2529 14.9489 36.4679C14.3829 37.0829 14.6464 37.0534 8.65345 37.0534C3.31445 37.0534 3.17795 37.0534 2.84595 36.8484C2.11395 36.4189 1.88945 35.6869 2.25045 34.9059C2.54345 34.2814 7.32595 26.1414 7.55045 25.9069C7.99945 25.4294 8.64395 25.2829 9.21995 25.5269Z" fill="white"/>
<path d="M7.7755 28.6895C7.6195 28.797 7.434 28.9335 7.3755 29.0115C7.317 29.0895 6.907 30.056 6.46801 31.1684C5.50151 33.6279 5.46251 34.0674 6.14601 34.7994C6.605 35.2874 6.878 35.3459 8.713 35.3459C10.3135 35.3459 10.411 35.3364 10.792 35.1114C11.29 34.8284 11.6605 34.1939 11.6705 33.6474C11.6705 33.2084 10.187 29.2945 9.894 28.9625C9.454 28.4845 8.3415 28.348 7.7755 28.6895ZM9.2395 31.7345C9.503 32.4079 9.7665 33.1009 9.8445 33.2669L9.9715 33.5889H8.7025C7.99 33.5889 7.4335 33.5499 7.4335 33.5009C7.4335 33.2764 8.644 30.368 8.7025 30.4365C8.7415 30.4755 8.9855 31.061 9.2395 31.7345Z" fill="white"/>
<path d="M1.28441 42.6658V45.6913H2.99241H4.70041V47.8388V49.9858H7.28691H9.87341V47.8388V45.6913H25.3919H40.9104V47.8388V49.9858H43.4969H46.0834V47.8388V45.6913H47.7914H49.4999V42.6658V39.6403H25.3924H1.28441V42.6658ZM47.7429 42.6658V43.9348H25.3434H2.94391V42.6658V41.3968H25.3434H47.7429V42.6658ZM8.11691 46.9603V48.2293H7.28741H6.45791V46.9603V45.6913H7.28741H8.11691V46.9603ZM44.3269 46.9603V48.2293H43.4484H42.5699V46.9603V45.6913H43.4484H44.3269V46.9603Z" fill="white"/>
</svg>
