<svg width="108" height="21" viewBox="0 0 108 21" fill="none" xmlns="http://www.w3.org/2000/svg">
<g clip-path="url(#clip0_520_70)">
<path d="M4.1 4.74V9.62H11.12V11.34H4.1V17H2.1V3H11.98V4.74H4.1ZM18.7233 17.12C17.6699 17.12 16.7233 16.8867 15.8833 16.42C15.0433 15.9533 14.3833 15.3133 13.9033 14.5C13.4366 13.6733 13.2033 12.74 13.2033 11.7C13.2033 10.66 13.4366 9.73333 13.9033 8.92C14.3833 8.09333 15.0433 7.45333 15.8833 7C16.7233 6.53333 17.6699 6.3 18.7233 6.3C19.7766 6.3 20.7166 6.53333 21.5433 7C22.3833 7.45333 23.0366 8.09333 23.5033 8.92C23.9833 9.73333 24.2233 10.66 24.2233 11.7C24.2233 12.74 23.9833 13.6733 23.5033 14.5C23.0366 15.3133 22.3833 15.9533 21.5433 16.42C20.7166 16.8867 19.7766 17.12 18.7233 17.12ZM18.7233 15.44C19.4033 15.44 20.0099 15.2867 20.5433 14.98C21.0899 14.66 21.5166 14.22 21.8233 13.66C22.1299 13.0867 22.2833 12.4333 22.2833 11.7C22.2833 10.9667 22.1299 10.32 21.8233 9.76C21.5166 9.18667 21.0899 8.74667 20.5433 8.44C20.0099 8.13333 19.4033 7.98 18.7233 7.98C18.0433 7.98 17.4299 8.13333 16.8833 8.44C16.3499 8.74667 15.9233 9.18667 15.6033 9.76C15.2966 10.32 15.1433 10.9667 15.1433 11.7C15.1433 12.4333 15.2966 13.0867 15.6033 13.66C15.9233 14.22 16.3499 14.66 16.8833 14.98C17.4299 15.2867 18.0433 15.44 18.7233 15.44ZM31.4186 17.12C30.3653 17.12 29.4186 16.8867 28.5786 16.42C27.7386 15.9533 27.0786 15.3133 26.5986 14.5C26.1319 13.6733 25.8986 12.74 25.8986 11.7C25.8986 10.66 26.1319 9.73333 26.5986 8.92C27.0786 8.09333 27.7386 7.45333 28.5786 7C29.4186 6.53333 30.3653 6.3 31.4186 6.3C32.4719 6.3 33.4119 6.53333 34.2386 7C35.0786 7.45333 35.7319 8.09333 36.1986 8.92C36.6786 9.73333 36.9186 10.66 36.9186 11.7C36.9186 12.74 36.6786 13.6733 36.1986 14.5C35.7319 15.3133 35.0786 15.9533 34.2386 16.42C33.4119 16.8867 32.4719 17.12 31.4186 17.12ZM31.4186 15.44C32.0986 15.44 32.7053 15.2867 33.2386 14.98C33.7853 14.66 34.2119 14.22 34.5186 13.66C34.8253 13.0867 34.9786 12.4333 34.9786 11.7C34.9786 10.9667 34.8253 10.32 34.5186 9.76C34.2119 9.18667 33.7853 8.74667 33.2386 8.44C32.7053 8.13333 32.0986 7.98 31.4186 7.98C30.7386 7.98 30.1253 8.13333 29.5786 8.44C29.0453 8.74667 28.6186 9.18667 28.2986 9.76C27.9919 10.32 27.8386 10.9667 27.8386 11.7C27.8386 12.4333 27.9919 13.0867 28.2986 13.66C28.6186 14.22 29.0453 14.66 29.5786 14.98C30.1253 15.2867 30.7386 15.44 31.4186 15.44ZM49.5739 2.16V17H47.7339V15.32C47.3072 15.9067 46.7672 16.3533 46.1139 16.66C45.4606 16.9667 44.7406 17.12 43.9539 17.12C42.9272 17.12 42.0072 16.8933 41.1939 16.44C40.3806 15.9867 39.7406 15.3533 39.2739 14.54C38.8206 13.7133 38.5939 12.7667 38.5939 11.7C38.5939 10.6333 38.8206 9.69333 39.2739 8.88C39.7406 8.06667 40.3806 7.43333 41.1939 6.98C42.0072 6.52667 42.9272 6.3 43.9539 6.3C44.7139 6.3 45.4139 6.44667 46.0539 6.74C46.6939 7.02 47.2272 7.44 47.6539 8V2.16H49.5739ZM44.1139 15.44C44.7806 15.44 45.3872 15.2867 45.9339 14.98C46.4806 14.66 46.9072 14.22 47.2139 13.66C47.5206 13.0867 47.6739 12.4333 47.6739 11.7C47.6739 10.9667 47.5206 10.32 47.2139 9.76C46.9072 9.18667 46.4806 8.74667 45.9339 8.44C45.3872 8.13333 44.7806 7.98 44.1139 7.98C43.4339 7.98 42.8206 8.13333 42.2739 8.44C41.7406 8.74667 41.3139 9.18667 40.9939 9.76C40.6872 10.32 40.5339 10.9667 40.5339 11.7C40.5339 12.4333 40.6872 13.0867 40.9939 13.66C41.3139 14.22 41.7406 14.66 42.2739 14.98C42.8206 15.2867 43.4339 15.44 44.1139 15.44Z" fill="white"/>
<path d="M69.3178 15.26V17H57.6178V15.64L66.4178 4.74H57.7578V3H69.0578V4.36L60.2978 15.26H69.3178ZM76.028 17.12C74.9746 17.12 74.028 16.8867 73.188 16.42C72.348 15.9533 71.688 15.3133 71.208 14.5C70.7413 13.6733 70.508 12.74 70.508 11.7C70.508 10.66 70.7413 9.73333 71.208 8.92C71.688 8.09333 72.348 7.45333 73.188 7C74.028 6.53333 74.9746 6.3 76.028 6.3C77.0813 6.3 78.0213 6.53333 78.848 7C79.688 7.45333 80.3413 8.09333 80.808 8.92C81.288 9.73333 81.528 10.66 81.528 11.7C81.528 12.74 81.288 13.6733 80.808 14.5C80.3413 15.3133 79.688 15.9533 78.848 16.42C78.0213 16.8867 77.0813 17.12 76.028 17.12ZM76.028 15.44C76.708 15.44 77.3146 15.2867 77.848 14.98C78.3946 14.66 78.8213 14.22 79.128 13.66C79.4346 13.0867 79.588 12.4333 79.588 11.7C79.588 10.9667 79.4346 10.32 79.128 9.76C78.8213 9.18667 78.3946 8.74667 77.848 8.44C77.3146 8.13333 76.708 7.98 76.028 7.98C75.348 7.98 74.7346 8.13333 74.188 8.44C73.6546 8.74667 73.228 9.18667 72.908 9.76C72.6013 10.32 72.448 10.9667 72.448 11.7C72.448 12.4333 72.6013 13.0867 72.908 13.66C73.228 14.22 73.6546 14.66 74.188 14.98C74.7346 15.2867 75.348 15.44 76.028 15.44ZM89.8433 6.3C91.1899 6.3 92.2566 6.69333 93.0433 7.48C93.8433 8.25333 94.2433 9.39333 94.2433 10.9V17H92.3233V11.12C92.3233 10.0933 92.0766 9.32 91.5833 8.8C91.0899 8.28 90.3833 8.02 89.4633 8.02C88.4233 8.02 87.6033 8.32667 87.0033 8.94C86.4033 9.54 86.1033 10.4067 86.1033 11.54V17H84.1833V6.4H86.0233V8C86.4099 7.45333 86.9299 7.03333 87.5833 6.74C88.2499 6.44667 89.0033 6.3 89.8433 6.3ZM107.435 11.76C107.435 11.9067 107.422 12.1 107.395 12.34H98.7952C98.9152 13.2733 99.3218 14.0267 100.015 14.6C100.722 15.16 101.595 15.44 102.635 15.44C103.902 15.44 104.922 15.0133 105.695 14.16L106.755 15.4C106.275 15.96 105.675 16.3867 104.955 16.68C104.248 16.9733 103.455 17.12 102.575 17.12C101.455 17.12 100.462 16.8933 99.5952 16.44C98.7285 15.9733 98.0552 15.3267 97.5752 14.5C97.1085 13.6733 96.8752 12.74 96.8752 11.7C96.8752 10.6733 97.1018 9.74667 97.5552 8.92C98.0218 8.09333 98.6552 7.45333 99.4552 7C100.268 6.53333 101.182 6.3 102.195 6.3C103.208 6.3 104.108 6.53333 104.895 7C105.695 7.45333 106.315 8.09333 106.755 8.92C107.208 9.74667 107.435 10.6933 107.435 11.76ZM102.195 7.92C101.275 7.92 100.502 8.2 99.8752 8.76C99.2618 9.32 98.9018 10.0533 98.7952 10.96H105.595C105.488 10.0667 105.122 9.34 104.495 8.78C103.882 8.20667 103.115 7.92 102.195 7.92Z" fill="#FF0000"/>
</g>
<defs>
<clipPath id="clip0_520_70">
<rect width="108" height="20.4" fill="white"/>
</clipPath>
</defs>
</svg>
