<?xml version="1.0" standalone="no"?>
<!DOCTYPE svg PUBLIC "-//W3C//DTD SVG 20010904//EN"
 "http://www.w3.org/TR/2001/REC-SVG-20010904/DTD/svg10.dtd">
<svg version="1.0" xmlns="http://www.w3.org/2000/svg"
 width="700.000000pt" height="700.000000pt" viewBox="0 0 700.000000 700.000000"
 preserveAspectRatio="xMidYMid meet">
<metadata>
Created by potrace 1.14, written by Peter Selinger 2001-2017
</metadata>
<g transform="translate(0.000000,700.000000) scale(0.100000,-0.100000)"
fill="#000000" stroke="none">
<path d="M5720 6819 c0 -5 -34 -19 -43 -17 -5 2 -1657 -1655 -1657 -1661 0 -4
-16 -22 -35 -41 -19 -19 -35 -40 -35 -46 0 -7 -6 -17 -12 -21 -15 -10 -45 -57
-59 -95 -6 -16 -15 -28 -21 -28 -5 0 -8 -6 -6 -12 3 -7 -1 -19 -9 -26 -7 -7
-13 -24 -13 -38 0 -13 -5 -24 -11 -24 -6 0 -8 -7 -5 -16 4 -9 1 -23 -5 -31 -7
-7 -9 -16 -6 -20 4 -3 2 -12 -5 -20 -6 -8 -12 -35 -14 -61 -1 -26 -3 -47 -4
-47 -6 0 -6 -201 -1 -210 3 -5 7 -28 8 -50 1 -22 7 -53 14 -70 22 -52 17 -77
-23 -117 -20 -21 -41 -38 -46 -38 -5 0 -27 -19 -49 -42 -21 -24 -57 -56 -79
-73 -21 -16 -55 -47 -74 -67 -19 -21 -38 -38 -43 -38 -5 0 -28 -19 -50 -43
-23 -23 -58 -54 -77 -68 l-35 -26 -45 48 c-25 27 -48 49 -52 49 -5 0 -28 20
-53 44 -25 25 -58 53 -74 62 -16 10 -34 27 -41 38 -6 12 -27 32 -47 46 -20 14
-61 49 -89 78 l-53 53 22 62 c12 34 25 64 28 67 6 4 22 57 34 105 1 6 5 18 10
28 4 9 5 24 2 32 -4 8 -2 17 3 20 6 4 10 22 10 41 0 19 3 34 8 34 9 0 6 305
-3 383 -5 32 -12 60 -16 63 -4 2 -6 11 -2 19 3 9 0 21 -6 29 -7 8 -11 18 -10
22 3 15 -13 74 -22 80 -4 2 -6 11 -2 19 3 8 0 15 -6 15 -6 0 -11 7 -11 15 0 9
-9 34 -20 55 -11 22 -18 40 -15 40 3 0 1 6 -5 13 -6 6 -29 44 -52 82 -22 39
-52 82 -66 98 -14 15 -23 27 -20 27 3 0 -10 19 -31 42 -61 70 -138 148 -146
148 -4 0 -34 27 -67 60 -32 33 -62 60 -66 60 -4 0 -28 20 -52 45 -24 24 -45
43 -47 41 -3 -2 -16 6 -30 19 -51 45 -63 55 -71 55 -5 0 -19 11 -32 25 -12 13
-27 22 -31 19 -5 -3 -9 0 -9 5 0 6 -5 11 -11 11 -6 0 -29 14 -50 31 -21 17
-39 27 -39 22 0 -4 -6 -1 -13 8 -11 14 -46 32 -55 29 -2 -1 -10 7 -17 17 -7
10 -17 18 -22 19 -16 1 -83 38 -83 45 0 5 -16 11 -35 15 -19 3 -35 10 -35 16
0 5 -5 6 -10 3 -6 -3 -13 0 -16 9 -3 8 -11 13 -19 10 -7 -3 -20 2 -29 11 -9 9
-20 13 -26 10 -5 -3 -10 -1 -10 4 0 6 -7 11 -15 11 -8 0 -15 4 -15 8 0 5 -6 9
-12 10 -26 1 -57 11 -87 26 -17 9 -34 17 -38 17 -5 1 -18 5 -31 10 -13 5 -34
9 -48 9 -13 0 -24 5 -24 11 0 6 -7 9 -15 6 -8 -4 -17 -2 -20 3 -4 6 -22 10
-41 10 -19 0 -34 4 -34 9 0 6 -10 8 -22 6 -12 -3 -26 -1 -32 4 -6 5 -22 8 -36
7 -14 -1 -38 2 -55 6 -36 10 -360 12 -376 3 -6 -4 -27 -8 -47 -9 -20 -2 -54
-10 -74 -19 -20 -8 -39 -13 -42 -10 -3 3 -12 0 -20 -6 -8 -7 -20 -10 -26 -6
-5 3 -10 3 -10 -2 0 -4 -21 -17 -48 -27 -49 -20 -125 -66 -130 -79 -2 -4 -7
-5 -12 -2 -4 3 -20 -8 -33 -25 -14 -16 -31 -30 -38 -30 -14 0 -69 -62 -63 -71
2 -4 -4 -10 -13 -13 -10 -3 -39 -39 -66 -79 -26 -39 -52 -77 -57 -84 -6 -7 -9
-16 -9 -20 1 -4 -6 -26 -16 -48 -10 -22 -20 -43 -21 -47 -1 -5 -3 -9 -4 -10
-1 -2 -4 -12 -6 -23 -13 -71 -17 -85 -24 -85 -10 0 -13 -43 -13 -260 -1 -205
3 -270 15 -270 4 0 7 -10 7 -22 -1 -19 4 -49 24 -135 2 -7 6 -16 10 -19 4 -4
7 -16 7 -26 0 -10 4 -18 9 -18 5 0 7 -9 4 -20 -3 -11 0 -27 7 -35 7 -8 10 -15
6 -15 -4 0 2 -17 13 -37 10 -21 20 -42 21 -48 2 -5 6 -19 11 -30 18 -46 22
-60 21 -67 -1 -5 3 -8 9 -8 5 0 7 -4 4 -10 -3 -5 -1 -10 4 -10 6 0 11 -7 11
-15 0 -8 4 -15 10 -15 5 0 9 -3 8 -7 -1 -5 4 -21 10 -36 7 -16 12 -33 12 -38
0 -5 4 -9 9 -9 8 0 24 -34 30 -65 1 -5 9 -14 17 -18 8 -4 14 -15 14 -22 0 -8
4 -15 10 -15 5 0 9 -3 8 -7 -3 -13 25 -63 34 -63 5 0 7 -4 4 -9 -4 -5 -3 -11
1 -13 11 -4 53 -65 53 -77 0 -5 7 -12 16 -15 8 -3 13 -10 10 -15 -3 -5 5 -17
19 -27 13 -10 22 -21 19 -25 -2 -4 7 -18 21 -30 13 -13 25 -28 25 -33 0 -4 9
-18 19 -30 11 -11 38 -43 61 -71 104 -127 333 -359 343 -349 2 2 12 -5 22 -16
10 -11 24 -20 32 -20 7 0 13 -4 13 -10 0 -5 17 -17 38 -27 20 -9 39 -20 42
-24 8 -10 94 -53 103 -51 4 1 10 -4 13 -12 3 -8 12 -12 19 -10 7 3 24 0 37 -7
13 -7 25 -14 28 -14 3 -1 23 -7 45 -15 22 -8 48 -13 57 -11 10 1 18 -2 18 -7
0 -5 12 -10 28 -10 15 -1 54 -6 87 -13 92 -18 392 -13 445 8 8 4 24 7 35 8 17
1 45 8 125 32 8 2 17 4 19 3 2 -1 7 2 10 7 5 7 55 28 86 37 6 2 17 6 26 10 12
5 34 -10 78 -53 33 -34 58 -61 54 -61 -4 0 22 -29 57 -65 35 -36 61 -65 57
-65 -3 0 21 -27 55 -60 33 -33 57 -60 53 -60 -4 0 20 -27 54 -60 34 -33 59
-60 55 -60 -4 0 3 -11 16 -25 12 -13 26 -22 30 -20 5 3 10 -2 14 -10 8 -22
134 -21 142 0 4 8 12 15 19 15 7 0 27 16 44 35 17 20 31 33 31 29 0 -4 10 5
21 20 12 15 23 25 26 23 2 -3 31 21 63 52 101 97 177 166 181 166 3 0 17 10
33 23 16 12 26 22 22 22 -4 0 9 13 27 30 19 16 38 30 41 30 4 0 32 26 62 58
30 31 59 57 64 57 5 0 33 25 62 55 29 30 57 56 61 57 16 4 24 10 69 59 26 29
49 49 52 46 3 -3 28 18 55 46 28 29 54 52 58 52 4 0 32 25 62 55 30 30 63 57
73 61 10 3 16 9 13 14 -3 4 2 13 10 20 8 7 15 19 15 26 0 8 4 14 9 14 19 0 -6
125 -31 157 -5 7 -7 17 -3 23 3 5 2 10 -3 10 -10 0 -25 75 -25 123 0 15 -3 27
-8 27 -9 0 -6 66 4 90 4 8 5 23 4 34 -2 10 3 41 10 70 8 28 15 57 17 64 1 7 9
21 17 30 9 10 14 23 11 30 -2 7 1 12 7 12 6 0 10 3 9 8 -4 10 42 84 61 100 9
7 16 17 16 21 0 5 24 34 53 64 28 31 52 55 52 53 0 -2 71 70 158 159 86 89
159 163 162 164 4 1 538 531 535 531 -1 0 58 60 130 133 71 72 132 132 135
132 3 0 53 48 111 107 58 60 104 108 104 108 -1 0 51 52 116 117 65 64 116
120 114 124 -3 4 0 9 5 11 11 3 15 68 7 103 -3 11 -6 23 -6 27 -1 4 -10 10
-21 13 -11 3 -20 12 -20 19 0 7 -23 17 -55 23 -30 5 -55 6 -55 2z m-4585 -611
c17 -2 35 -6 40 -10 6 -4 23 -5 38 -4 15 2 27 0 27 -4 0 -4 15 -10 33 -14 17
-3 41 -8 52 -10 11 -3 27 -6 35 -8 8 -2 20 -6 25 -9 8 -5 40 -15 75 -24 3 0
19 -8 35 -17 17 -8 36 -13 43 -11 6 3 12 0 12 -5 0 -9 62 -36 80 -35 3 0 22
-11 43 -24 20 -13 37 -20 37 -17 0 4 15 -5 34 -19 18 -15 36 -23 40 -20 3 4 6
1 6 -5 0 -7 7 -12 15 -12 8 0 15 -5 15 -11 0 -5 4 -8 9 -5 5 3 14 -1 21 -9 7
-8 19 -15 27 -15 7 0 16 -6 19 -14 3 -8 16 -17 28 -20 12 -3 32 -13 43 -23 12
-10 31 -25 43 -33 13 -8 47 -34 76 -57 29 -24 55 -43 57 -43 6 0 54 -40 117
-97 26 -24 50 -43 53 -43 12 0 197 -193 197 -206 0 -8 7 -14 15 -14 8 0 15 -9
15 -20 0 -11 5 -20 10 -20 6 0 14 -8 18 -17 4 -10 19 -36 32 -58 14 -22 25
-42 26 -45 5 -23 30 -70 37 -70 4 0 5 -5 2 -10 -4 -6 -2 -16 3 -23 10 -12 26
-71 20 -73 -2 0 3 -8 11 -17 7 -9 11 -23 8 -32 -4 -8 -2 -17 3 -20 6 -4 10
-24 10 -46 0 -21 3 -39 8 -39 4 0 7 -52 7 -115 0 -63 -2 -115 -6 -115 -6 0
-19 -82 -20 -122 0 -10 -4 -18 -10 -18 -5 0 -8 -3 -7 -7 4 -18 -15 -93 -23
-93 -6 0 -7 -4 -4 -10 3 -5 1 -10 -4 -10 -6 0 -11 -10 -11 -23 0 -12 -15 -46
-34 -75 -19 -28 -32 -52 -28 -52 3 0 1 -5 -6 -12 -14 -14 -16 -128 -2 -128 6
0 9 -4 8 -8 -4 -11 65 -86 80 -89 6 -2 33 -24 60 -50 27 -27 76 -70 108 -98
32 -27 83 -72 113 -100 31 -27 61 -54 68 -60 7 -5 35 -30 61 -55 l49 -45 -66
-62 c-36 -35 -74 -65 -83 -68 -9 -4 -20 -15 -23 -26 -4 -10 -11 -19 -17 -19
-5 0 -19 -11 -30 -25 -11 -14 -24 -25 -29 -25 -5 0 -24 17 -42 37 -18 20 -48
54 -68 75 -20 21 -34 38 -31 38 2 0 -7 9 -22 21 -14 11 -26 24 -26 29 0 5 -22
31 -50 58 -27 27 -50 53 -50 57 0 4 -27 34 -60 66 -33 33 -60 61 -60 64 -2 17
-14 35 -24 35 -7 0 -19 11 -26 25 -7 13 -16 24 -19 23 -3 -1 -14 2 -24 7 -26
11 -140 1 -145 -14 -4 -12 -50 -36 -64 -33 -5 1 -8 -2 -8 -7 0 -5 -15 -13 -32
-16 -18 -4 -35 -11 -38 -16 -3 -5 -17 -10 -30 -11 -14 -2 -27 -6 -30 -10 -3
-4 -19 -9 -35 -12 -17 -2 -30 -5 -30 -6 0 -3 -38 -11 -105 -21 -70 -11 -250
-17 -250 -9 0 3 -30 11 -67 18 -97 17 -105 19 -138 33 -16 6 -34 13 -40 13 -5
1 -28 10 -50 20 -22 11 -43 18 -47 18 -5 -1 -8 2 -8 6 0 5 -16 14 -35 22 -19
8 -35 17 -35 22 0 4 -5 8 -10 8 -6 0 -16 4 -23 10 -7 5 -32 26 -57 45 -53 42
-192 175 -183 175 5 0 -54 67 -137 157 -17 17 -30 34 -30 38 0 6 -57 83 -71
95 -3 3 -15 22 -28 43 -12 20 -27 37 -32 37 -6 0 -8 4 -4 9 3 5 -2 16 -10 24
-8 9 -15 20 -15 25 0 6 -6 12 -14 15 -8 3 -17 19 -21 36 -4 17 -10 31 -15 31
-5 0 -19 21 -32 48 -13 26 -27 50 -33 54 -5 4 -10 11 -11 15 -1 8 -7 27 -23
68 -5 11 -9 24 -9 29 0 5 -4 12 -9 15 -13 10 -42 74 -49 109 -4 17 -10 32 -15
32 -5 0 -8 3 -7 8 1 4 -4 20 -10 35 -7 16 -12 39 -12 52 0 13 -5 27 -11 30 -6
4 -8 13 -5 21 3 8 1 14 -5 14 -6 0 -9 6 -6 13 3 7 -1 24 -8 37 -7 12 -10 31
-7 42 2 10 0 24 -6 31 -6 7 -10 28 -10 47 1 19 -2 42 -6 51 -4 9 -5 68 -2 130
7 172 8 179 18 179 5 0 8 8 7 18 -3 19 19 92 32 107 5 5 9 17 9 26 0 9 7 22
15 29 8 7 12 16 9 21 -3 5 0 9 5 9 6 0 11 7 11 15 0 8 9 19 20 25 11 6 20 16
20 22 0 15 70 88 85 88 5 0 16 9 23 21 7 12 16 18 19 15 3 -3 20 6 38 19 17
14 39 25 48 25 9 0 19 4 22 10 5 8 64 29 100 35 6 1 12 3 15 5 3 1 22 4 43 5
22 2 42 6 45 10 6 6 214 1 287 -7z"/>
<path d="M6081 6444 c-26 -11 -1355 -1335 -1373 -1368 -5 -9 -7 -24 -4 -32 3
-8 1 -14 -5 -14 -6 0 -6 -6 0 -19 6 -10 8 -21 5 -24 -3 -3 2 -20 13 -37 19
-33 75 -66 92 -56 5 4 12 2 16 -4 4 -6 12 -7 18 -3 7 4 21 9 32 10 11 2 55 39
98 83 43 44 82 80 87 80 6 0 10 3 10 8 0 4 18 26 40 50 22 23 40 40 40 37 0
-3 15 11 33 31 42 49 87 94 87 88 0 -3 7 1 15 10 8 8 15 17 15 19 0 10 121
127 131 127 5 0 9 4 9 8 0 7 568 582 575 582 2 0 19 16 38 35 19 19 34 35 32
35 -2 0 17 20 42 45 24 25 49 45 54 45 5 0 9 4 9 10 0 5 14 22 30 37 17 14 30
32 30 40 0 7 3 13 8 13 4 0 7 18 7 40 0 22 -3 40 -7 40 -5 0 -8 7 -8 15 0 18
-43 65 -60 65 -5 0 -10 4 -10 8 0 11 -69 9 -99 -4z"/>
<path d="M6443 6098 c-48 -13 -1366 -1332 -1383 -1383 -20 -60 6 -131 57 -157
65 -34 137 -16 193 48 16 19 30 32 30 29 0 -4 7 0 15 9 8 8 15 16 15 19 0 8
134 137 142 137 4 0 8 4 8 10 0 5 11 20 25 34 14 14 25 24 25 22 0 -2 56 54
125 124 69 70 125 126 125 124 0 -2 27 26 60 61 33 35 60 62 60 60 0 -3 24 22
53 54 28 33 60 62 70 66 9 3 17 10 17 13 0 10 380 389 384 384 2 -2 7 5 10 15
3 10 19 27 35 38 17 11 36 30 42 42 7 13 18 23 25 23 6 0 15 16 18 35 4 21 11
33 17 29 7 -4 9 9 6 37 -6 50 -26 99 -40 99 -6 0 -18 6 -26 14 -22 19 -70 25
-108 14z"/>
<path d="M6850 5697 c-19 -5 -43 -15 -54 -23 -31 -21 -256 -246 -256 -256 0
-4 -3 -8 -7 -8 -11 0 -115 -100 -106 -100 5 0 2 -4 -6 -9 -21 -13 -639 -631
-632 -631 3 0 0 -4 -8 -9 -15 -10 -201 -192 -201 -197 0 -2 -11 -14 -25 -28
-14 -14 -25 -24 -25 -22 0 2 -96 -93 -212 -210 -117 -118 -218 -214 -225 -214
-7 0 -16 -6 -20 -13 -11 -18 -149 -88 -157 -80 -3 3 -6 1 -6 -6 0 -7 -7 -11
-15 -8 -8 4 -17 2 -20 -3 -4 -6 -19 -10 -36 -10 -16 0 -29 -4 -29 -8 0 -10
-206 -9 -216 1 -4 4 -22 7 -41 7 -18 0 -33 4 -33 8 0 4 -9 9 -20 10 -43 4 -50
6 -50 13 0 3 -10 10 -22 14 -33 10 -118 13 -118 3 0 -4 -6 -8 -13 -8 -13 0
-39 -23 -107 -98 -25 -27 -71 -77 -102 -111 -32 -33 -58 -65 -58 -70 0 -4 -25
-32 -56 -61 -30 -29 -53 -54 -50 -57 2 -3 -17 -26 -45 -51 -27 -25 -49 -49
-49 -54 0 -5 -22 -33 -50 -61 -68 -71 -172 -189 -190 -215 -8 -12 -23 -25 -32
-28 -10 -3 -16 -9 -14 -13 3 -4 -6 -15 -20 -25 -13 -11 -24 -23 -24 -28 0 -5
-24 -33 -52 -63 -60 -62 -80 -85 -75 -85 2 0 -19 -24 -47 -54 -28 -30 -76 -82
-106 -116 -30 -34 -72 -80 -94 -103 -21 -23 -47 -53 -58 -67 -11 -14 -42 -48
-69 -76 -27 -29 -49 -55 -49 -59 0 -4 -25 -31 -55 -60 -30 -30 -55 -58 -55
-63 0 -6 -15 -23 -33 -39 -18 -16 -41 -40 -50 -53 -17 -25 -76 -91 -174 -196
-29 -31 -53 -58 -53 -62 0 -5 -74 -86 -171 -188 -27 -28 -49 -55 -49 -60 0 -5
-22 -31 -49 -59 -86 -87 -171 -181 -171 -189 0 -3 -25 -31 -55 -61 -30 -31
-55 -59 -55 -64 0 -5 -12 -20 -27 -33 -16 -13 -43 -41 -61 -63 -66 -79 -118
-136 -169 -190 -29 -30 -53 -58 -53 -63 0 -5 -22 -30 -49 -55 -28 -26 -54 -54
-59 -64 -10 -16 -80 -95 -174 -195 -27 -28 -48 -53 -48 -57 0 -10 -44 -51 -54
-51 -4 0 -18 -12 -31 -26 -13 -14 -25 -25 -27 -25 -9 3 -68 -24 -68 -31 0 -4
-9 -5 -20 -3 -11 2 -20 0 -20 -6 0 -5 -40 -9 -95 -8 -53 1 -95 5 -95 11 0 5
-3 7 -8 4 -4 -2 -25 4 -47 14 -22 11 -45 19 -50 20 -6 0 -17 9 -25 19 -7 11
-17 18 -20 16 -4 -2 -20 9 -35 25 -16 17 -25 30 -19 30 5 0 -3 10 -18 23 -25
22 -52 79 -65 137 -11 50 -15 150 -5 150 5 0 8 11 7 25 -2 14 1 27 6 31 5 3 7
10 3 15 -3 5 6 25 21 44 14 19 23 35 19 35 -4 0 5 11 19 24 14 13 24 26 21 29
-3 3 9 15 27 28 18 12 54 43 80 68 111 105 179 166 186 166 4 0 27 21 51 48
25 26 49 47 54 47 5 0 33 25 62 55 29 30 57 55 62 55 6 0 29 20 51 44 23 25
44 42 47 39 3 -4 6 -1 6 5 0 6 9 14 21 17 11 4 18 9 16 12 -6 5 80 86 86 81 2
-2 32 26 65 60 34 35 62 61 62 57 0 -4 26 19 59 50 32 32 61 57 65 56 3 0 32
25 65 57 126 121 181 170 181 164 0 -3 29 23 65 58 36 35 65 61 65 57 0 -4 23
17 52 48 29 30 56 55 61 55 12 0 42 31 58 60 16 30 21 120 6 120 -6 0 -7 3 -4
7 10 10 -44 63 -63 63 -9 0 -20 3 -24 7 -10 10 -76 10 -76 0 0 -4 -15 -14 -33
-22 -17 -8 -29 -14 -25 -15 11 0 -25 -40 -36 -40 -9 0 -68 -53 -193 -171 -28
-27 -56 -49 -62 -49 -6 0 -15 -9 -21 -20 -6 -11 -15 -18 -20 -15 -5 3 -11 -3
-14 -13 -4 -11 -22 -30 -40 -43 -18 -13 -62 -50 -97 -82 -35 -31 -88 -78 -118
-105 -30 -26 -80 -73 -113 -104 -32 -32 -61 -57 -64 -57 -4 1 -28 -19 -54 -45
-26 -25 -51 -46 -54 -46 -4 0 -32 -25 -62 -55 -31 -30 -58 -55 -61 -55 -4 0
-36 -28 -72 -61 -36 -34 -92 -84 -124 -113 -31 -28 -82 -75 -113 -104 -31 -28
-58 -52 -62 -52 -10 0 -179 -169 -174 -175 3 -3 0 -5 -6 -5 -7 0 -12 -7 -12
-15 0 -8 -4 -15 -8 -15 -5 0 -17 -19 -28 -42 -10 -24 -21 -45 -25 -48 -8 -6
-33 -91 -31 -103 1 -4 -2 -7 -7 -7 -5 0 -8 -12 -8 -26 0 -14 -4 -29 -9 -34 -5
-5 -6 -64 -2 -132 7 -139 9 -148 18 -148 4 0 7 -8 7 -17 0 -31 15 -83 25 -83
5 0 6 -4 3 -10 -3 -5 -2 -10 3 -10 9 0 47 -70 44 -83 -1 -4 5 -10 13 -13 8 -3
12 -10 9 -15 -3 -5 -1 -9 4 -9 14 0 54 -38 49 -47 -5 -8 25 -41 31 -34 2 1 20
-11 40 -28 21 -17 44 -37 52 -44 8 -6 17 -12 20 -11 11 1 60 -21 60 -28 0 -4
16 -10 35 -14 19 -3 35 -10 35 -14 0 -4 13 -6 30 -5 16 1 30 -2 30 -7 0 -5 18
-8 39 -7 21 2 45 -1 53 -7 7 -5 24 -9 38 -8 56 4 146 16 160 21 8 3 26 7 40 9
44 6 189 84 241 130 27 24 54 44 60 44 6 0 9 6 6 13 -2 7 11 23 29 37 18 14
34 28 34 32 0 7 26 36 106 120 24 26 44 50 44 54 0 4 27 34 60 66 33 33 58 63
57 66 -2 4 17 25 44 47 26 22 48 46 48 53 1 6 6 12 11 12 6 0 9 4 8 8 -2 4 18
28 43 53 25 24 50 55 54 68 4 12 9 21 11 18 6 -5 94 83 94 94 0 4 25 32 55 62
30 30 55 58 55 63 0 4 24 31 53 59 30 28 56 56 58 62 7 17 78 93 88 93 5 0 12
9 16 20 3 10 33 46 66 80 33 33 57 64 54 70 -3 5 -2 10 4 10 11 0 101 88 101
99 0 4 25 31 55 61 30 29 53 56 50 58 -2 2 23 31 55 62 33 32 60 63 60 68 0 5
25 33 56 62 30 29 53 54 51 56 -4 4 38 50 153 171 28 29 50 57 50 61 0 5 18
25 40 46 22 20 40 41 40 46 0 5 11 5 25 -2 14 -6 25 -17 25 -24 0 -7 27 -39
60 -71 33 -32 60 -63 60 -68 0 -6 25 -34 55 -63 31 -28 52 -52 49 -52 -4 0 21
-30 55 -67 35 -38 85 -93 112 -123 27 -30 73 -82 103 -115 30 -33 82 -91 115
-130 34 -38 85 -94 114 -124 29 -30 52 -58 52 -62 0 -4 24 -31 53 -59 28 -29
52 -56 52 -60 0 -4 22 -29 50 -56 27 -26 47 -50 45 -52 -2 -2 23 -31 56 -63
32 -33 59 -63 59 -67 0 -4 25 -32 55 -62 30 -30 55 -57 55 -61 0 -6 49 -60
166 -182 30 -31 52 -57 48 -57 -7 0 41 -53 167 -187 27 -28 49 -55 49 -60 0
-4 25 -32 55 -62 30 -29 55 -56 55 -60 0 -10 89 -101 99 -101 5 0 19 -11 32
-25 13 -13 30 -25 37 -25 6 0 12 -4 12 -10 0 -5 3 -9 8 -8 9 2 65 -24 72 -33
6 -8 91 -33 103 -31 4 1 7 -2 7 -7 0 -8 90 -21 155 -22 34 0 148 16 185 26 14
4 37 9 53 12 15 3 27 10 27 15 0 5 5 6 10 3 6 -3 10 -1 10 4 0 6 3 11 8 10 16
-2 52 14 52 24 0 6 3 8 6 4 8 -7 37 16 114 93 74 74 96 101 112 136 6 13 15
24 20 24 4 0 7 3 6 8 -1 4 4 20 10 35 7 16 12 36 12 46 0 10 3 21 7 25 8 7 10
16 24 91 14 76 10 218 -8 265 -4 8 -7 17 -8 20 -1 3 -5 12 -9 21 -4 9 -6 20
-5 25 4 15 -20 64 -30 64 -5 0 -12 13 -16 30 -4 16 -11 30 -16 30 -5 0 -9 5
-9 11 0 21 -141 179 -160 179 -4 0 -31 25 -61 55 -29 30 -57 55 -61 55 -5 0
-33 24 -64 52 -31 29 -71 67 -90 84 -18 17 -36 29 -39 26 -3 -3 -5 1 -5 8 0
13 -37 50 -51 50 -4 0 -32 26 -63 57 -31 32 -56 54 -56 50 0 -5 -19 11 -43 35
-24 24 -59 56 -78 71 -35 29 -102 87 -192 169 -29 26 -74 67 -102 92 -27 25
-80 72 -116 105 -36 34 -69 61 -74 61 -4 0 -31 25 -60 55 -28 30 -56 55 -62
55 -6 0 -24 15 -40 32 -16 18 -44 46 -63 61 -36 28 -105 91 -206 185 -30 28
-59 52 -62 52 -4 0 -31 25 -61 55 -30 30 -58 55 -62 55 -5 0 -29 21 -55 48
-26 26 -50 47 -54 47 -3 0 -32 26 -63 57 -31 31 -57 54 -57 50 0 -3 -22 16
-49 42 l-50 49 55 53 c30 29 54 57 54 61 0 4 25 32 55 62 30 30 55 57 55 61 0
4 27 36 60 71 33 35 76 81 95 102 21 22 41 35 47 31 18 -11 117 -35 168 -40
106 -11 150 -12 150 -5 0 4 30 7 66 6 36 0 68 3 70 7 3 4 16 8 29 8 13 0 26 4
30 10 3 5 12 7 20 3 9 -3 22 0 30 7 8 7 15 10 15 6 0 -4 15 1 33 11 17 9 37
18 42 18 22 3 75 30 75 38 0 4 4 6 9 3 5 -3 14 1 21 9 7 8 17 15 22 15 10 0
26 12 73 56 19 18 35 30 38 28 4 -4 1612 1600 1668 1664 25 28 29 41 29 92 0
56 -15 90 -41 90 -5 0 -9 6 -9 13 0 19 -61 34 -100 24z m-3008 -2737 c7 -11
17 -20 22 -20 5 0 37 -26 71 -57 34 -32 90 -83 124 -113 92 -81 158 -140 232
-209 36 -34 69 -61 74 -61 4 0 31 -25 60 -55 29 -30 57 -55 62 -55 4 0 30 -23
56 -50 26 -28 52 -50 56 -50 5 0 34 -27 66 -59 32 -33 61 -59 64 -58 6 2 31
-21 181 -162 32 -29 61 -54 66 -55 4 0 34 -27 66 -59 32 -32 58 -55 58 -52 0
3 21 -14 48 -39 26 -25 81 -75 122 -111 41 -36 98 -87 127 -115 28 -27 54 -50
58 -50 4 0 31 -22 59 -50 28 -27 68 -63 89 -79 21 -16 38 -33 37 -36 -1 -3 16
-19 37 -35 92 -70 283 -250 283 -266 0 -7 7 -15 16 -18 9 -4 14 -13 10 -21 -3
-8 -1 -15 4 -15 6 0 10 -7 10 -16 0 -8 4 -13 9 -10 5 4 8 -2 6 -11 -1 -10 2
-26 7 -36 10 -19 12 -145 4 -187 -8 -35 -38 -104 -51 -112 -5 -4 -6 -8 -2 -8
4 0 -18 -27 -50 -59 -37 -38 -81 -70 -120 -89 -55 -26 -75 -30 -154 -30 -51
-1 -97 2 -103 6 -6 4 -18 7 -26 8 -21 1 -90 36 -90 46 0 4 -5 8 -12 8 -13 0
-128 110 -128 123 0 5 -25 33 -55 62 -30 30 -55 57 -55 61 0 4 -24 33 -52 64
-64 68 -199 219 -328 365 -33 39 -85 96 -115 127 -30 32 -55 61 -55 65 0 5
-25 32 -55 62 -31 29 -54 55 -51 58 2 2 -18 25 -45 51 -27 26 -49 50 -49 55 0
4 -24 32 -52 62 -29 29 -59 62 -67 72 -25 31 -111 126 -164 181 -28 28 -47 52
-43 52 3 0 -19 26 -51 58 -32 31 -64 69 -72 85 -8 15 -16 25 -18 23 -5 -5 -83
78 -83 88 0 3 -25 31 -55 61 -30 29 -55 57 -55 61 0 4 -22 30 -49 58 -27 28
-75 80 -106 116 -31 36 -66 76 -79 90 l-23 25 23 25 c12 14 52 59 89 100 36
41 88 98 115 126 28 28 50 56 50 62 0 10 15 19 32 21 4 1 13 -8 20 -19z"/>
</g>
</svg>
